<svg xmlns="http://www.w3.org/2000/svg" width="44.163" height="58.884" viewBox="0 0 44.163 58.884">
  <g id="Group_32" data-name="Group 32" transform="translate(-4798.696 1622)">
    <path id="Path_48" data-name="Path 48" d="M4841.781-1607.279l-13.643-13.643a3.68,3.68,0,0,0-2.6-1.078H4803.5a4.808,4.808,0,0,0-4.809,4.808v49.268a4.808,4.808,0,0,0,4.809,4.808h34.546a4.808,4.808,0,0,0,4.809-4.808v-36.753A3.677,3.677,0,0,0,4841.781-1607.279Zm-11.8,1.84a3.68,3.68,0,0,1-3.681-3.68v-7.36l11.041,11.041Z" fill="#2d7e31"/>
    <text id="PDF" transform="translate(4805.462 -1583.179)" fill="#fff" font-size="13" font-family="SegoeUI-Bold, Segoe UI" font-weight="700"><tspan x="0" y="0">PDF</tspan></text>
    <g id="Group_31" data-name="Group 31" transform="translate(4804.1 -1612.204)">
      <path id="Path_49" data-name="Path 49" d="M4854.963-1517.089a3.886,3.886,0,0,1,.23-.631,1.685,1.685,0,0,1,1.559-.9h2.326a3.734,3.734,0,0,1,.169-.592,1.321,1.321,0,0,1,1.283-.782c1.431,0,2.862-.008,4.293,0a1.33,1.33,0,0,1,1.358,1.035,3.324,3.324,0,0,1,.052.338h.168c.738,0,1.476,0,2.214,0a1.738,1.738,0,0,1,1.724,1.343,2.038,2.038,0,0,1,.045.463c0,2.385-.007,4.771.008,7.156a1.781,1.781,0,0,1-1.794,1.807c-.527-.009-1.055,0-1.583,0q-5.1,0-10.212,0a1.748,1.748,0,0,1-1.607-.88,3.549,3.549,0,0,1-.235-.643Zm7.709,8.46h5.873a.947.947,0,0,0,1.058-.913,8.357,8.357,0,0,0,.025-.946q0-3.148,0-6.3a1.011,1.011,0,0,0-.392-.869,1.1,1.1,0,0,0-.7-.19q-1.325,0-2.651,0a.405.405,0,0,1-.441-.438c0-.08,0-.161,0-.241.033-.423-.172-.724-.719-.717-1.274.017-2.549.005-3.825.005-.155,0-.312,0-.467,0a.525.525,0,0,0-.507.485c-.014.134-.01.271-.012.406,0,.347-.148.495-.493.5-.893,0-1.786,0-2.68,0a.947.947,0,0,0-1,1q0,3.6,0,7.2a1.16,1.16,0,0,0,.1.478.956.956,0,0,0,.951.534Q4859.735-1508.63,4862.672-1508.629Z" transform="translate(-4854.963 1520)" fill="#fff"/>
      <path id="Path_50" data-name="Path 50" d="M4904.917-1483.532a3.616,3.616,0,0,1-3.608,3.6,3.617,3.617,0,0,1-3.608-3.615,3.617,3.617,0,0,1,3.624-3.6A3.619,3.619,0,0,1,4904.917-1483.532Zm-.8.027a2.8,2.8,0,0,0-2.792-2.834,2.806,2.806,0,0,0-2.832,2.81,2.812,2.812,0,0,0,2.809,2.821A2.807,2.807,0,0,0,4904.12-1483.505Z" transform="translate(-4893.596 1490.304)" fill="#fff"/>
      <path id="Path_51" data-name="Path 51" d="M4982.868-1485.815a.715.715,0,0,1-.712-.721.715.715,0,0,1,.713-.706.714.714,0,0,1,.72.714A.713.713,0,0,1,4982.868-1485.815Z" transform="translate(-4969.939 1490.389)" fill="#fff"/>
    </g>
  </g>
</svg>
