<svg xmlns="http://www.w3.org/2000/svg" width="41.696" height="54.737" viewBox="0 0 41.696 54.737">
  <g id="Group_17" data-name="Group 17" transform="translate(-5833.38 -719.264)">
    <path id="Path_32" data-name="Path 32" d="M5837.552,719.264h21.488v10.8c0,3.266,1.985,5.24,5.268,5.24h10.769v.581q0,16.541,0,33.082a4.811,4.811,0,0,1-5.042,5.036q-15.792,0-31.585,0a5.631,5.631,0,0,1-.905-.051,4.793,4.793,0,0,1-4.159-4.962q0-16.407,0-32.815c0-4.008-.006-8.017,0-12.025a4.564,4.564,0,0,1,2.12-4.026A11.784,11.784,0,0,1,5837.552,719.264Zm16.7,25.765q4.726,0,9.452,0a1.61,1.61,0,1,0-.009-3.208q-6.675-.006-13.35,0c-1.87,0-3.738,0-5.607,0a1.607,1.607,0,1,0,.01,3.207Q5849.494,745.036,5854.248,745.029Zm-.028,3.207q-4.726,0-9.452,0a1.622,1.622,0,0,0-1.628.981,1.6,1.6,0,0,0,1.621,2.227q6.248.007,12.5,0,3.23,0,6.461,0a1.607,1.607,0,1,0,.008-3.206Q5858.972,748.228,5854.22,748.236Zm.008,9.622q4.726,0,9.452,0a1.624,1.624,0,0,0,1.61-.924,1.59,1.59,0,0,0-1.525-2.282c-3.062-.01-6.124,0-9.186,0q-4.913,0-9.826,0a1.612,1.612,0,0,0-1.572.9,1.6,1.6,0,0,0,1.541,2.307C5847.89,757.863,5851.059,757.857,5854.228,757.858Zm-3.2,3.207q-3.123,0-6.246,0a1.612,1.612,0,1,0,.009,3.205q6.22,0,12.438,0a1.615,1.615,0,1,0-.009-3.206Q5854.127,761.062,5851.031,761.065Z" transform="translate(0)" fill="#1465c0"/>
    <path id="Path_33" data-name="Path 33" d="M5911.963,880.4q-4.752,0-9.505,0a1.607,1.607,0,1,1-.01-3.207c1.869,0,3.739,0,5.607,0q6.675,0,13.35,0a1.61,1.61,0,1,1,.01,3.208Q5916.689,880.4,5911.963,880.4Z" transform="translate(-57.716 -135.375)" fill="#fff"/>
    <path id="Path_34" data-name="Path 34" d="M5911.928,922.1q4.753,0,9.506,0a1.607,1.607,0,1,1-.008,3.206q-3.231-.006-6.461,0-6.248,0-12.5,0a1.6,1.6,0,0,1-1.621-2.227,1.622,1.622,0,0,1,1.628-.981Q5907.2,922.108,5911.928,922.1Z" transform="translate(-57.708 -173.865)" fill="#fff"/>
    <path id="Path_35" data-name="Path 35" d="M5911.965,970.224c-3.168,0-6.337.005-9.506,0a1.6,1.6,0,0,1-1.541-2.307,1.612,1.612,0,0,1,1.572-.9q4.913.007,9.826,0c3.062,0,6.124-.007,9.185,0a1.591,1.591,0,0,1,1.526,2.282,1.625,1.625,0,0,1-1.61.924Q5916.691,970.218,5911.965,970.224Z" transform="translate(-57.738 -212.367)" fill="#fff"/>
    <path id="Path_36" data-name="Path 36" d="M5908.8,1011.938q3.1,0,6.192,0a1.615,1.615,0,1,1,.009,3.206q-6.219,0-12.438,0a1.612,1.612,0,1,1-.009-3.205Q5905.676,1011.934,5908.8,1011.938Z" transform="translate(-57.769 -250.873)" fill="#fff"/>
    <path id="Path_37" data-name="Path 37" d="M6035.5,726.63l11.758,11.752c-.124.008-.255.024-.387.024q-4.778,0-9.558,0a1.633,1.633,0,0,1-1.812-1.816q0-4.779,0-9.558Z" transform="translate(-173.249 -6.314)" fill="#1465c0"/>
    <text id="HTML" transform="translate(5838.011 729.739)" fill="#fff" font-size="5" font-family="SegoeUI-Bold, Segoe UI" font-weight="700"><tspan x="0" y="0">HTML</tspan></text>
  </g>
</svg>
