<svg xmlns="http://www.w3.org/2000/svg" width="39.926" height="52.412" viewBox="0 0 39.926 52.412">
  <g id="Group_109" data-name="Group 109" transform="translate(-605.838 -123)">
    <g id="Group_108" data-name="Group 108">
      <g id="Group_12" data-name="Group 12" transform="translate(-4075.542 -1073.264)">
        <path id="Path_26" data-name="Path 26" d="M4685.375,1196.264h20.576V1206.6c0,3.127,1.9,5.018,5.044,5.018h10.311v.557q0,15.838,0,31.677a4.605,4.605,0,0,1-4.827,4.822q-15.122,0-30.243,0a5.363,5.363,0,0,1-.867-.049,4.588,4.588,0,0,1-3.982-4.751q0-15.711,0-31.421,0-5.757,0-11.514a4.374,4.374,0,0,1,2.03-3.855A11.294,11.294,0,0,1,4685.375,1196.264Zm15.986,24.67q4.526,0,9.051,0a1.541,1.541,0,1,0-.009-3.071q-6.391-.006-12.783,0c-1.79,0-3.58,0-5.369,0a1.539,1.539,0,1,0,.009,3.07Q4696.81,1220.942,4701.36,1220.934Zm-.025,3.071q-4.526,0-9.051,0a1.552,1.552,0,0,0-1.559.939,1.536,1.536,0,0,0,1.552,2.132q5.981.007,11.964,0,3.094,0,6.188,0a1.539,1.539,0,1,0,.007-3.07C4707.4,1224,4704.369,1224.005,4701.335,1224.005Zm.007,9.213q4.525,0,9.05,0a1.556,1.556,0,0,0,1.542-.885,1.524,1.524,0,0,0-1.462-2.185c-2.931-.01-5.862,0-8.794,0q-4.7,0-9.408,0a1.543,1.543,0,0,0-1.5.861,1.527,1.527,0,0,0,1.475,2.209C4695.273,1233.224,4698.307,1233.218,4701.342,1233.218Zm-3.061,3.071q-2.99,0-5.98,0a1.543,1.543,0,1,0,.008,3.069q5.957,0,11.91,0a1.546,1.546,0,1,0-.008-3.069Q4701.245,1236.287,4698.281,1236.289Z" transform="translate(0 0)" fill="#1465c0"/>
        <path id="Path_27" data-name="Path 27" d="M4759.484,1357.267q-4.55,0-9.1,0a1.539,1.539,0,1,1-.009-3.07c1.79,0,3.58,0,5.369,0q6.391,0,12.783,0a1.541,1.541,0,1,1,.01,3.071Q4764.009,1357.262,4759.484,1357.267Z" transform="translate(-58.124 -136.333)" fill="#fff"/>
        <path id="Path_28" data-name="Path 28" d="M4759.451,1399.1q4.551,0,9.1,0a1.539,1.539,0,1,1-.008,3.07q-3.093-.006-6.187,0-5.983,0-11.966,0a1.536,1.536,0,0,1-1.552-2.132,1.554,1.554,0,0,1,1.56-.94Q4754.926,1399.108,4759.451,1399.1Z" transform="translate(-58.116 -175.095)" fill="#fff"/>
        <path id="Path_29" data-name="Path 29" d="M4759.488,1447.088c-3.034,0-6.068.005-9.1,0a1.527,1.527,0,0,1-1.476-2.209,1.544,1.544,0,0,1,1.505-.861q4.7.007,9.408,0c2.932,0,5.863-.006,8.794,0a1.524,1.524,0,0,1,1.462,2.185,1.557,1.557,0,0,1-1.542.885Q4764.013,1447.082,4759.488,1447.088Z" transform="translate(-58.146 -213.87)" fill="#fff"/>
        <path id="Path_30" data-name="Path 30" d="M4756.458,1488.938q2.966,0,5.93,0a1.546,1.546,0,1,1,.008,3.07q-5.955,0-11.911,0a1.543,1.543,0,1,1-.008-3.069Q4753.468,1488.934,4756.458,1488.938Z" transform="translate(-58.177 -252.648)" fill="#fff"/>
        <path id="Path_31" data-name="Path 31" d="M4883.5,1203.63l11.258,11.253c-.119.008-.245.023-.37.023q-4.576,0-9.152,0a1.564,1.564,0,0,1-1.735-1.739q0-4.576,0-9.152Z" transform="translate(-174.474 -6.359)" fill="#1465c0"/>
        <text id="PDF" transform="translate(4685.668 1205.57)" fill="#fff" font-size="6" font-family="SegoeUI-Bold, Segoe UI" font-weight="700"><tspan x="0" y="0">PDF</tspan></text>
      </g>
    </g>
  </g>
</svg>
