<svg xmlns="http://www.w3.org/2000/svg" width="56.736" height="52.412" viewBox="0 0 56.736 52.412">
  <g id="Group_11" data-name="Group 11" transform="translate(-3646.415 -362)">
    <path id="Path_22" data-name="Path 22" d="M3680.488,373.642,3669.7,362.853a2.911,2.911,0,0,0-2.057-.853h-17.424a3.8,3.8,0,0,0-3.8,3.8v38.963a3.8,3.8,0,0,0,3.8,3.8h27.321a3.8,3.8,0,0,0,3.8-3.8V375.7A2.91,2.91,0,0,0,3680.488,373.642Zm-9.334,1.455a2.91,2.91,0,0,1-2.91-2.911v-5.821l8.731,8.731Z" transform="translate(0)" fill="#1465c0"/>
    <text id="DOC" transform="translate(3651.07 393.559)" fill="#fff" font-size="11" font-family="SegoeUI-Bold, Segoe UI" font-weight="700"><tspan x="0" y="0">DOC</tspan></text>
    <g id="Group_9" data-name="Group 9" transform="translate(3670.511 383.993)" opacity="0.93">
      <rect id="Rectangle_6" data-name="Rectangle 6" width="31.242" height="29.022" rx="5" transform="translate(0.699 0.699)" fill="#662d91"/>
      <path id="Path_23" data-name="Path 23" d="M3967.031,659.92h-22.422a5.114,5.114,0,0,1-5.109-5.109v-20.2a5.114,5.114,0,0,1,5.109-5.109h22.422a5.115,5.115,0,0,1,5.109,5.109v20.2A5.115,5.115,0,0,1,3967.031,659.92ZM3944.609,630.9a3.715,3.715,0,0,0-3.711,3.711v20.2a3.715,3.715,0,0,0,3.711,3.711h22.422a3.715,3.715,0,0,0,3.711-3.711v-20.2a3.715,3.715,0,0,0-3.711-3.711Z" transform="translate(-3939.5 -629.5)" fill="#fff"/>
    </g>
    <g id="Group_10" data-name="Group 10" transform="translate(3678.977 393.015)">
      <path id="Path_24" data-name="Path 24" d="M4048.994,772.531c.093-.154.167-.272.236-.393q1.4-2.483,2.792-4.968c.136-.244.281-.47.6-.469s.462.231.6.474q2.421,4.31,4.844,8.617c.38.677.159,1.051-.618,1.051q-7.1,0-14.195,0c-.3,0-.567-.022-.72-.324s0-.516.163-.742q1.849-2.637,3.7-5.275c.4-.573.776-.575,1.175-.01C4048.036,771.163,4048.5,771.833,4048.994,772.531Zm7.736,3.185-4.089-7.267a.84.84,0,0,0-.1.1q-1.366,2.42-2.722,4.844a.39.39,0,0,0,.022.334,13.647,13.647,0,0,1,.77,1.134,1.521,1.521,0,0,0,1.657.871C4053.731,775.664,4055.2,775.716,4056.73,775.716Zm-12.593-.029h5.688l-2.845-4.06Z" transform="translate(-4042.472 -764.443)" fill="#fff"/>
      <path id="Path_25" data-name="Path 25" d="M4087,740.926a1.689,1.689,0,1,1-1.675-1.685A1.7,1.7,0,0,1,4087,740.926Zm-1.694-.557a.561.561,0,1,0,.566.547A.565.565,0,0,0,4085.3,740.369Z" transform="translate(-4080.237 -739.241)" fill="#fff"/>
    </g>
  </g>
</svg>
