<svg xmlns="http://www.w3.org/2000/svg" width="41.052" height="54.737" viewBox="0 0 41.052 54.737">
  <g id="Group_21" data-name="Group 21" transform="translate(-6076.696 840)">
    <path id="Path_39" data-name="Path 39" d="M6116.746-826.316,6104.064-839a3.422,3.422,0,0,0-2.419-1h-20.48a4.47,4.47,0,0,0-4.469,4.47v45.8a4.47,4.47,0,0,0,4.469,4.47h32.114a4.47,4.47,0,0,0,4.469-4.47V-823.9A3.42,3.42,0,0,0,6116.746-826.316Zm-10.972,1.711a3.422,3.422,0,0,1-3.421-3.421v-6.842l10.264,10.263Z" transform="translate(0 0)" fill="#2d7e31"/>
    <text id="PDF" transform="translate(6083.7 -802.927)" fill="#fff" font-size="13" font-family="SegoeUI-Bold, Segoe UI" font-weight="700"><tspan x="0" y="0">PDF</tspan></text>
  </g>
</svg>
