<svg xmlns="http://www.w3.org/2000/svg" xmlns:xlink="http://www.w3.org/1999/xlink" width="374.346" height="363.275" viewBox="0 0 374.346 363.275">
  <defs>
    <clipPath id="clip-path">
      <path id="Path_308" data-name="Path 308" d="M794.074,2426.84l-30.368-9.912-2.7-7.141-6.176-.193-11.193-2.123,1.351,2.316,14.088,10.229,3.474,1.737,31.77,16.586Z" transform="translate(-743.635 -2407.471)" fill="#fff" stroke="#1a2e35" stroke-miterlimit="10" stroke-width="1.004"/>
    </clipPath>
    <clipPath id="clip-path-2">
      <path id="Path_312" data-name="Path 312" d="M772.882,2410.579l-2.895-1.737-5.79,2.123.965,1.158Z" transform="translate(-764.198 -2408.842)" fill="#fff" stroke="#1a2e35" stroke-linejoin="round" stroke-width="1.004"/>
    </clipPath>
    <clipPath id="clip-path-3">
      <path id="Path_316" data-name="Path 316" d="M863.572,2298.078s-.47,4.151.7,6.819,7.677,11.692,7.677,11.692l-12.146,9.738s-5.031-10.173-5.993-11.786-2.108-8.71,1.016-13.771S862.454,2294.369,863.572,2298.078Z" transform="translate(-852.786 -2295.964)" fill="#fff" stroke="#1a2e35" stroke-miterlimit="10" stroke-width="1.004"/>
    </clipPath>
    <clipPath id="clip-path-4">
      <path id="Path_320" data-name="Path 320" d="M839.285,2264.338c-.746-4.6-6.027-14-14.411-13.63-5.443.239-7.982,1.338-10.35,2.671a29.949,29.949,0,0,0-5.342,4.006c-4.1,4.909-5.51,6.261-4.745,10.02a11.366,11.366,0,0,0,.7,4.408,35.427,35.427,0,0,0,3.2,7.131c-.333,1.561-1.194,5.671-1.241,6.613-.044.87,2.752.285,4.184-.071,2.64,5.9,7.47,9.992,8.978,10.463,2.616.818,6.762-3.487,8.953-6.822s.539-7.1.545-8.588,4.937-4.775,6.755-5.815S840.031,2268.936,839.285,2264.338Z" transform="translate(-804.236 -2250.698)" fill="#fff" stroke="#1a2e35" stroke-miterlimit="10" stroke-width="1"/>
    </clipPath>
    <clipPath id="clip-path-5">
      <path id="Path_347" data-name="Path 347" d="M811.169,2360.98s6.536,4.456,6.686,14.984c.065,4.572-.411,8.915-1.471,16.472s-7.652,32.142-12.772,35.129-13.092-2.655-13.092-2.655l-38.5-25.554-9.3-7.561-4.566-8.709,1.374-2.721,11.381,8.737-6.112-5.648,1.2-1.529,2.209,1.543,6.466,2.412,1.414,9.254,1.99,1.367,36.785,13.4s-.457-19.814-.117-23.609.811-13.317,4.872-20.222" transform="translate(-738.156 -2360.98)" fill="#fff" stroke="#1a2e35" stroke-miterlimit="10" stroke-width="1.004"/>
    </clipPath>
  </defs>
  <g id="Group_167" data-name="Group 167" transform="translate(-692.926 -2082)" opacity="0.64">
    <g id="Group_142" data-name="Group 142" transform="translate(692.926 2082)">
      <g id="Group_140" data-name="Group 140">
        <path id="Path_287" data-name="Path 287" d="M1028.954,2136.584c-22.947-52.319-78.023-72.015-121.479-36.9-16.963,13.707-27.556,35.517-48.334,44.265-19.491,8.206-44.191,5.784-65.274,10.229-44.891,9.465-105.3,45.195-100.691,100.145,2.022,24.091,18.278,50.85,26.3,73.385,9.236,25.94,14.785,58.377,39.17,73.883,41.855,26.614,92.339,4.855,130.081-16.612,20.278-11.533,31.459-18.626,53.3-14.673,20.231,3.662,38.444,16.6,58.208,1.285,14.839-11.5,16.062-34.81,28.52-48.493,14.037-15.418,28.274-16.536,35.563-39.713,8.842-28.115-4.184-45.684-13-70.81C1042.561,2187.581,1039.764,2161.233,1028.954,2136.584Z" transform="translate(-692.926 -2082)" fill="#af0"/>
      </g>
      <g id="Group_141" data-name="Group 141">
        <path id="Path_288" data-name="Path 288" d="M1028.954,2136.584c-22.947-52.319-78.023-72.015-121.479-36.9-16.963,13.707-27.556,35.517-48.334,44.265-19.491,8.206-44.191,5.784-65.274,10.229-44.891,9.465-105.3,45.195-100.691,100.145,2.022,24.091,18.278,50.85,26.3,73.385,9.236,25.94,14.785,58.377,39.17,73.883,41.855,26.614,92.339,4.855,130.081-16.612,20.278-11.533,31.459-18.626,53.3-14.673,20.231,3.662,38.444,16.6,58.208,1.285,14.839-11.5,16.062-34.81,28.52-48.493,14.037-15.418,28.274-16.536,35.563-39.713,8.842-28.115-4.184-45.684-13-70.81C1042.561,2187.581,1039.764,2161.233,1028.954,2136.584Z" transform="translate(-692.926 -2082)" fill="#272727"/>
      </g>
    </g>
    <g id="Group_143" data-name="Group 143" transform="translate(711.799 2427.517)">
      <ellipse id="Ellipse_10" data-name="Ellipse 10" cx="142.558" cy="8.879" rx="142.558" ry="8.879" transform="translate(0 0)" fill="#af0"/>
      <ellipse id="Ellipse_11" data-name="Ellipse 11" cx="142.558" cy="8.879" rx="142.558" ry="8.879" transform="translate(0 0)" fill="#fff" opacity="0.8"/>
    </g>
    <path id="Rectangle_37" data-name="Rectangle 37" d="M19.43,0H159.756a19.429,19.429,0,0,1,19.429,19.429v299.6a19.43,19.43,0,0,1-19.43,19.43H19.43A19.43,19.43,0,0,1,0,319.032V19.43A19.43,19.43,0,0,1,19.43,0Z" transform="translate(800.221 2098.68)" fill="#1a2e35"/>
    <rect id="Rectangle_38" data-name="Rectangle 38" width="163.258" height="264.133" transform="translate(808.185 2135.845)" fill="#fff" stroke="#1a2e35" stroke-miterlimit="10" stroke-width="1.337"/>
    <g id="Group_144" data-name="Group 144" transform="translate(836.632 2167.733)">
      <circle id="Ellipse_12" data-name="Ellipse 12" cx="35.388" cy="35.388" r="35.388" transform="translate(3.137 50.046) rotate(-45)" fill="#af0"/>
      <path id="Path_289" data-name="Path 289" d="M1139.847,2791.2H1046.94a1.588,1.588,0,0,1-1.588-1.588h0a1.588,1.588,0,0,1,1.588-1.588h92.907a1.588,1.588,0,0,1,1.588,1.588h0A1.588,1.588,0,0,1,1139.847,2791.2Z" transform="translate(-1040.211 -2575.567)" fill="#af0"/>
      <rect id="Rectangle_39" data-name="Rectangle 39" width="106.365" height="19.06" rx="4.006" transform="translate(0 105.318)" fill="#af0"/>
      <rect id="Rectangle_40" data-name="Rectangle 40" width="106.365" height="19.06" rx="4.006" transform="translate(0 140.978)" fill="#af0"/>
    </g>
    <g id="Group_145" data-name="Group 145" transform="translate(846.838 2313.426)">
      <path id="Path_290" data-name="Path 290" d="M1060.616,2639.556a.9.9,0,0,1-.641-.269.856.856,0,0,1-.283-.642.867.867,0,0,1,.138-.469l1.656-2.663-3.23.11a.877.877,0,0,1-.669-.254.874.874,0,0,1,.669-1.484l3.188.124-1.642-2.649a.938.938,0,0,1-.139-.483.855.855,0,0,1,.283-.642.909.909,0,0,1,.642-.27.835.835,0,0,1,.745.484l1.573,2.843,1.56-2.829a.928.928,0,0,1,.8-.511.829.829,0,0,1,.621.276.915.915,0,0,1,.262.649.969.969,0,0,1-.124.455l-1.67,2.677,3.244-.124a.856.856,0,0,1,.663.255.923.923,0,0,1,0,1.229.856.856,0,0,1-.663.254l-3.257-.11,1.615,2.635a.947.947,0,0,1,.138.483.957.957,0,0,1-.911.924.8.8,0,0,1-.732-.5l-1.546-2.774-1.532,2.774A.861.861,0,0,1,1060.616,2639.556Z" transform="translate(-1057.345 -2629.95)" fill="#1a2e35"/>
      <path id="Path_291" data-name="Path 291" d="M1096.038,2639.556a.9.9,0,0,1-.642-.269.856.856,0,0,1-.283-.642.871.871,0,0,1,.138-.469l1.656-2.663-3.23.11a.876.876,0,0,1-.669-.254.874.874,0,0,1,.669-1.484l3.188.124-1.643-2.649a.942.942,0,0,1-.138-.483.855.855,0,0,1,.283-.642.909.909,0,0,1,.642-.27.835.835,0,0,1,.745.484l1.573,2.843,1.56-2.829a.929.929,0,0,1,.8-.511.829.829,0,0,1,.621.276.914.914,0,0,1,.263.649.969.969,0,0,1-.124.455l-1.671,2.677,3.243-.124a.856.856,0,0,1,.663.255.923.923,0,0,1,0,1.229.856.856,0,0,1-.663.254l-3.257-.11,1.615,2.635a.941.941,0,0,1,.138.483.957.957,0,0,1-.911.924.8.8,0,0,1-.732-.5l-1.546-2.774-1.532,2.774A.862.862,0,0,1,1096.038,2639.556Z" transform="translate(-1077.807 -2629.95)" fill="#1a2e35"/>
      <path id="Path_292" data-name="Path 292" d="M1131.46,2639.556a.907.907,0,0,1-.642-.269.856.856,0,0,1-.282-.642.87.87,0,0,1,.138-.469l1.656-2.663-3.23.11a.876.876,0,0,1-.669-.254.874.874,0,0,1,.669-1.484l3.188.124-1.642-2.649a.94.94,0,0,1-.138-.483.858.858,0,0,1,.283-.642.909.909,0,0,1,.642-.27.833.833,0,0,1,.745.484l1.573,2.843,1.56-2.829a.929.929,0,0,1,.8-.511.829.829,0,0,1,.62.276.915.915,0,0,1,.262.649.969.969,0,0,1-.124.455l-1.67,2.677,3.243-.124a.857.857,0,0,1,.663.255.924.924,0,0,1,0,1.229.857.857,0,0,1-.663.254l-3.256-.11,1.615,2.635a.942.942,0,0,1,.138.483.956.956,0,0,1-.911.924.8.8,0,0,1-.732-.5l-1.546-2.774-1.532,2.774A.86.86,0,0,1,1131.46,2639.556Z" transform="translate(-1098.269 -2629.95)" fill="#1a2e35"/>
      <path id="Path_293" data-name="Path 293" d="M1166.881,2639.556a.905.905,0,0,1-.641-.269.854.854,0,0,1-.283-.642.871.871,0,0,1,.138-.469l1.656-2.663-3.23.11a.876.876,0,0,1-.669-.254.874.874,0,0,1,.669-1.484l3.188.124-1.642-2.649a.941.941,0,0,1-.138-.483.857.857,0,0,1,.283-.642.909.909,0,0,1,.642-.27.834.834,0,0,1,.745.484l1.573,2.843,1.56-2.829a.93.93,0,0,1,.8-.511.828.828,0,0,1,.62.276.913.913,0,0,1,.262.649.969.969,0,0,1-.124.455l-1.67,2.677,3.243-.124a.858.858,0,0,1,.663.255.924.924,0,0,1,0,1.229.857.857,0,0,1-.663.254l-3.257-.11,1.615,2.635a.946.946,0,0,1,.138.483.957.957,0,0,1-.911.924.805.805,0,0,1-.732-.5l-1.545-2.774-1.532,2.774A.861.861,0,0,1,1166.881,2639.556Z" transform="translate(-1118.73 -2629.95)" fill="#1a2e35"/>
      <path id="Path_294" data-name="Path 294" d="M1202.3,2639.556a.9.9,0,0,1-.641-.269.854.854,0,0,1-.283-.642.873.873,0,0,1,.138-.469l1.656-2.663-3.23.11a.876.876,0,0,1-.669-.254.874.874,0,0,1,.669-1.484l3.188.124-1.643-2.649a.944.944,0,0,1-.138-.483.858.858,0,0,1,.283-.642.91.91,0,0,1,.642-.27.834.834,0,0,1,.745.484l1.574,2.843,1.56-2.829a.929.929,0,0,1,.8-.511.829.829,0,0,1,.62.276.913.913,0,0,1,.262.649.965.965,0,0,1-.125.455l-1.67,2.677,3.243-.124a.856.856,0,0,1,.663.255.923.923,0,0,1,0,1.229.856.856,0,0,1-.663.254l-3.257-.11,1.615,2.635a.942.942,0,0,1,.138.483.957.957,0,0,1-.911.924.805.805,0,0,1-.732-.5l-1.545-2.774-1.532,2.774A.861.861,0,0,1,1202.3,2639.556Z" transform="translate(-1139.191 -2629.95)" fill="#1a2e35"/>
      <path id="Path_295" data-name="Path 295" d="M1237.725,2639.556a.905.905,0,0,1-.641-.269.854.854,0,0,1-.283-.642.873.873,0,0,1,.138-.469l1.656-2.663-3.23.11a.876.876,0,0,1-.669-.254.874.874,0,0,1,.669-1.484l3.188.124-1.643-2.649a.941.941,0,0,1-.138-.483.856.856,0,0,1,.283-.642.908.908,0,0,1,.642-.27.834.834,0,0,1,.745.484l1.573,2.843,1.56-2.829a.929.929,0,0,1,.8-.511.829.829,0,0,1,.621.276.913.913,0,0,1,.262.649.968.968,0,0,1-.124.455l-1.669,2.677,3.243-.124a.857.857,0,0,1,.663.255.923.923,0,0,1,0,1.229.856.856,0,0,1-.663.254l-3.257-.11,1.615,2.635a.946.946,0,0,1,.138.483.956.956,0,0,1-.911.924.8.8,0,0,1-.732-.5l-1.546-2.774-1.532,2.774A.86.86,0,0,1,1237.725,2639.556Z" transform="translate(-1159.653 -2629.95)" fill="#1a2e35"/>
    </g>
    <rect id="Rectangle_41" data-name="Rectangle 41" width="163.258" height="10.232" transform="translate(808.185 2136.192)" fill="#fff"/>
    <path id="Path_296" data-name="Path 296" d="M1149.265,2159.1H1113.77a2.42,2.42,0,0,1-2.42-2.42h0a2.42,2.42,0,0,1,2.42-2.42h35.495a2.42,2.42,0,0,1,2.421,2.42h0A2.421,2.421,0,0,1,1149.265,2159.1Z" transform="translate(-241.704 -41.739)" fill="#fff"/>
    <path id="Path_297" data-name="Path 297" d="M1155.542,2856.952a9.68,9.68,0,1,0-9.681,9.681A9.68,9.68,0,0,0,1155.542,2856.952Z" transform="translate(-256.047 -442.061)" fill="#af0"/>
    <rect id="Rectangle_42" data-name="Rectangle 42" width="9.812" height="9.813" transform="translate(884.908 2409.985)" fill="#af0" stroke="#1a2e35" stroke-linecap="round" stroke-linejoin="round" stroke-width="1.337"/>
    <g id="Group_148" data-name="Group 148" transform="translate(964.738 2260.359)">
      <path id="Path_298" data-name="Path 298" d="M1378.441,2547.5s-12.856-32.661-1.406-36.546c11.918-4.045,11.388,17.5,10.931,28.032-.975,22.473-3.454,26.648-5.308,21.165Zm-3.858,25.485c3.535,4.585,4.524-.17-1.853-21.741-2.989-10.11-9.484-30.659-19.443-22.963-9.567,7.394,13.2,34.109,13.2,34.109Zm-6.828,18.719c3.366,2.993,3.434-.785-4.567-16.354-3.75-7.3-11.693-22.066-18.192-14.739-6.244,7.039,15.033,24.166,15.033,24.166Zm-7.35,22.266c3.367,2.993,3.434-.785-4.567-16.354-3.75-7.3-11.694-22.066-18.193-14.739-6.243,7.039,15.034,24.166,15.034,24.166Zm21.309-45.324c-5.393,2.1-1.108,4.389,21.386,4.332,10.542-.027,32.088-.485,27.5-12.2-4.407-11.26-36.443,3.08-36.443,3.08Zm-6.134,14.981c-5.7.989-1.959,4.081,20.1,8.5,10.337,2.07,31.545,5.9,29.379-6.494-2.081-11.912-36.329-4.226-36.329-4.226Zm-6.878,18.313c-4.846.7-1.751,3.406,16.8,7.65,8.694,1.989,26.54,5.721,24.995-4.812-1.484-10.121-30.624-4.414-30.624-4.414Zm-5.21,16.94c-4.744,1.215-1.379,3.572,17.517,5.824,8.856,1.055,27,2.873,24.343-7.438-2.55-9.906-30.92-1.138-30.92-1.138Zm27.8-68.634c-2.8,6.19,2.981,5.254,22.513-11.793,9.154-7.99,27.5-24.725,12.97-33.054-13.96-8-28.958,30.625-28.958,30.625Zm-27.073,90.649c-2.93,1.71-.06,2.375,13.355-.3,6.287-1.253,19.082-4.02,14.737-9.475-4.174-5.24-21.325,5.859-21.325,5.859Z" transform="translate(-1336.499 -2504.303)" fill="#af0"/>
      <path id="Path_299" data-name="Path 299" d="M1378.441,2547.5s-12.856-32.661-1.406-36.546c11.918-4.045,11.388,17.5,10.931,28.032-.975,22.473-3.454,26.648-5.308,21.165Zm-3.858,25.485c3.535,4.585,4.524-.17-1.853-21.741-2.989-10.11-9.484-30.659-19.443-22.963-9.567,7.394,13.2,34.109,13.2,34.109Zm-6.828,18.719c3.366,2.993,3.434-.785-4.567-16.354-3.75-7.3-11.693-22.066-18.192-14.739-6.244,7.039,15.033,24.166,15.033,24.166Zm-7.35,22.266c3.367,2.993,3.434-.785-4.567-16.354-3.75-7.3-11.694-22.066-18.193-14.739-6.243,7.039,15.034,24.166,15.034,24.166Zm21.309-45.324c-5.393,2.1-1.108,4.389,21.386,4.332,10.542-.027,32.088-.485,27.5-12.2-4.407-11.26-36.443,3.08-36.443,3.08Zm-6.134,14.981c-5.7.989-1.959,4.081,20.1,8.5,10.337,2.07,31.545,5.9,29.379-6.494-2.081-11.912-36.329-4.226-36.329-4.226Zm-6.878,18.313c-4.846.7-1.751,3.406,16.8,7.65,8.694,1.989,26.54,5.721,24.995-4.812-1.484-10.121-30.624-4.414-30.624-4.414Zm-5.21,16.94c-4.744,1.215-1.379,3.572,17.517,5.824,8.856,1.055,27,2.873,24.343-7.438-2.55-9.906-30.92-1.138-30.92-1.138Zm27.8-68.634c-2.8,6.19,2.981,5.254,22.513-11.793,9.154-7.99,27.5-24.725,12.97-33.054-13.96-8-28.958,30.625-28.958,30.625Zm-27.073,90.649c-2.93,1.71-.06,2.375,13.355-.3,6.287-1.253,19.082-4.02,14.737-9.475-4.174-5.24-21.325,5.859-21.325,5.859Z" transform="translate(-1336.499 -2504.303)" fill="#fff" opacity="0.3"/>
      <g id="Group_146" data-name="Group 146" transform="translate(14.244 14.189)">
        <path id="Path_300" data-name="Path 300" d="M1403.613,2582.1l-2.237-37.286m-4.847,49.591-14.169-32.066m50.709,22.745-33.93,4.847m-9.953,21.759-18.385-23.623m21.577,16.388,25.323,1.277m-31.281,16.811,19.364,1.915m-24.046,9.575-9.576-14.47m8.512,19.578,22.769.213m-27.383,42.505a.578.578,0,0,0,.538-.615c-1.45-21.75,6.961-57.36,20.455-86.6,8.624-18.686,42.439-55.412,42.78-55.78a.578.578,0,0,0-.849-.784c-.341.371-34.279,37.229-42.979,56.08-13.782,29.861-22.044,64.886-20.56,87.158a.578.578,0,0,0,.575.539Zm27.587-99.182a.577.577,0,0,0,.542-.611l-2.237-37.286a.577.577,0,1,0-1.153.068l2.237,37.286a.578.578,0,0,0,.575.543Zm-6.885,12.257a.576.576,0,0,0,.294-.761l-14.168-32.067a.577.577,0,1,0-1.055.467L1396,2594.639a.576.576,0,0,0,.528.344A.563.563,0,0,0,1396.762,2594.934Zm2.459-4.43,33.931-4.848a.578.578,0,1,0-.164-1.144l-33.931,4.848a.577.577,0,0,0,.081,1.149A.694.694,0,0,0,1399.221,2590.5Zm-9.68,21.643a.578.578,0,0,0,.1-.81l-18.384-23.624a.578.578,0,1,0-.911.71l18.384,23.623a.578.578,0,0,0,.81.1Zm28.736-6.385a.576.576,0,0,0-.547-.605l-25.323-1.277a.567.567,0,0,0-.605.548.577.577,0,0,0,.547.605l25.323,1.277h.03A.577.577,0,0,0,1418.277,2605.761Zm-11.918,18.753a.577.577,0,0,0-.518-.631l-19.364-1.915a.578.578,0,0,0-.114,1.149l19.364,1.915.058,0A.577.577,0,0,0,1406.359,2624.515Zm-24.3,10a.579.579,0,0,0,.163-.8l-9.576-14.47a.578.578,0,1,0-.964.637l9.576,14.47a.579.579,0,0,0,.483.259A.572.572,0,0,0,1382.057,2634.516Zm21.963,4.844a.577.577,0,0,0-.572-.583l-22.77-.213h-.005a.577.577,0,0,0-.005,1.155l22.77.213h.005A.577.577,0,0,0,1404.021,2639.36Zm-30.547,34.047c.038-.107,3.927-10.8,15.6-13.356a.577.577,0,1,0-.247-1.127c-12.317,2.7-16.4,13.988-16.441,14.1a.577.577,0,0,0,.354.736.588.588,0,0,0,.191.033A.579.579,0,0,0,1373.474,2673.407Zm2.586,8.453a.578.578,0,0,0,.538-.615c-1.45-21.75,6.961-57.36,20.455-86.6,8.624-18.686,42.439-55.412,42.78-55.78a.578.578,0,0,0-.849-.784c-.341.371-34.279,37.229-42.979,56.08-13.782,29.861-22.044,64.886-20.56,87.158a.578.578,0,0,0,.575.539Zm27.587-99.182a.577.577,0,0,0,.542-.611l-2.237-37.286a.577.577,0,1,0-1.153.068l2.237,37.286a.578.578,0,0,0,.575.543Zm-6.885,12.257a.576.576,0,0,0,.294-.761l-14.168-32.067a.577.577,0,1,0-1.055.467L1396,2594.639a.576.576,0,0,0,.528.344A.563.563,0,0,0,1396.762,2594.934Zm2.459-4.43,33.931-4.848a.578.578,0,1,0-.164-1.144l-33.931,4.848a.577.577,0,0,0,.081,1.149A.694.694,0,0,0,1399.221,2590.5Zm-9.68,21.643a.578.578,0,0,0,.1-.81l-18.384-23.624a.578.578,0,1,0-.911.71l18.384,23.623a.578.578,0,0,0,.81.1Zm28.736-6.385a.576.576,0,0,0-.547-.605l-25.323-1.277a.567.567,0,0,0-.605.548.577.577,0,0,0,.547.605l25.323,1.277h.03A.577.577,0,0,0,1418.277,2605.761Zm-11.918,18.753a.577.577,0,0,0-.518-.631l-19.364-1.915a.578.578,0,0,0-.114,1.149l19.364,1.915.058,0A.577.577,0,0,0,1406.359,2624.515Zm-24.3,10a.579.579,0,0,0,.163-.8l-9.576-14.47a.578.578,0,1,0-.964.637l9.576,14.47a.579.579,0,0,0,.483.259A.572.572,0,0,0,1382.057,2634.516Zm21.963,4.844a.577.577,0,0,0-.572-.583l-22.77-.213h-.005a.577.577,0,0,0-.005,1.155l22.77.213h.005A.577.577,0,0,0,1404.021,2639.36Zm-30.547,34.047c.038-.107,3.927-10.8,15.6-13.356a.577.577,0,1,0-.247-1.127c-12.317,2.7-16.4,13.988-16.441,14.1a.577.577,0,0,0,.354.736.588.588,0,0,0,.191.033A.579.579,0,0,0,1373.474,2673.407Z" transform="translate(-1370.224 -2537.899)" fill="#af0"/>
        <path id="Path_301" data-name="Path 301" d="M1403.613,2582.1l-2.237-37.286m-4.847,49.591-14.169-32.066m50.709,22.745-33.93,4.847m-9.953,21.759-18.385-23.623m21.577,16.388,25.323,1.277m-31.281,16.811,19.364,1.915m-24.046,9.575-9.576-14.47m8.512,19.578,22.769.213m-27.383,42.505a.578.578,0,0,0,.538-.615c-1.45-21.75,6.961-57.36,20.455-86.6,8.624-18.686,42.439-55.412,42.78-55.78a.578.578,0,0,0-.849-.784c-.341.371-34.279,37.229-42.979,56.08-13.782,29.861-22.044,64.886-20.56,87.158a.578.578,0,0,0,.575.539Zm27.587-99.182a.577.577,0,0,0,.542-.611l-2.237-37.286a.577.577,0,1,0-1.153.068l2.237,37.286a.578.578,0,0,0,.575.543Zm-6.885,12.257a.576.576,0,0,0,.294-.761l-14.168-32.067a.577.577,0,1,0-1.055.467L1396,2594.639a.576.576,0,0,0,.528.344A.563.563,0,0,0,1396.762,2594.934Zm2.459-4.43,33.931-4.848a.578.578,0,1,0-.164-1.144l-33.931,4.848a.577.577,0,0,0,.081,1.149A.694.694,0,0,0,1399.221,2590.5Zm-9.68,21.643a.578.578,0,0,0,.1-.81l-18.384-23.624a.578.578,0,1,0-.911.71l18.384,23.623a.578.578,0,0,0,.81.1Zm28.736-6.385a.576.576,0,0,0-.547-.605l-25.323-1.277a.567.567,0,0,0-.605.548.577.577,0,0,0,.547.605l25.323,1.277h.03A.577.577,0,0,0,1418.277,2605.761Zm-11.918,18.753a.577.577,0,0,0-.518-.631l-19.364-1.915a.578.578,0,0,0-.114,1.149l19.364,1.915.058,0A.577.577,0,0,0,1406.359,2624.515Zm-24.3,10a.579.579,0,0,0,.163-.8l-9.576-14.47a.578.578,0,1,0-.964.637l9.576,14.47a.579.579,0,0,0,.483.259A.572.572,0,0,0,1382.057,2634.516Zm21.963,4.844a.577.577,0,0,0-.572-.583l-22.77-.213h-.005a.577.577,0,0,0-.005,1.155l22.77.213h.005A.577.577,0,0,0,1404.021,2639.36Zm-30.547,34.047c.038-.107,3.927-10.8,15.6-13.356a.577.577,0,1,0-.247-1.127c-12.317,2.7-16.4,13.988-16.441,14.1a.577.577,0,0,0,.354.736.588.588,0,0,0,.191.033A.579.579,0,0,0,1373.474,2673.407Zm2.586,8.453a.578.578,0,0,0,.538-.615c-1.45-21.75,6.961-57.36,20.455-86.6,8.624-18.686,42.439-55.412,42.78-55.78a.578.578,0,0,0-.849-.784c-.341.371-34.279,37.229-42.979,56.08-13.782,29.861-22.044,64.886-20.56,87.158a.578.578,0,0,0,.575.539Zm27.587-99.182a.577.577,0,0,0,.542-.611l-2.237-37.286a.577.577,0,1,0-1.153.068l2.237,37.286a.578.578,0,0,0,.575.543Zm-6.885,12.257a.576.576,0,0,0,.294-.761l-14.168-32.067a.577.577,0,1,0-1.055.467L1396,2594.639a.576.576,0,0,0,.528.344A.563.563,0,0,0,1396.762,2594.934Zm2.459-4.43,33.931-4.848a.578.578,0,1,0-.164-1.144l-33.931,4.848a.577.577,0,0,0,.081,1.149A.694.694,0,0,0,1399.221,2590.5Zm-9.68,21.643a.578.578,0,0,0,.1-.81l-18.384-23.624a.578.578,0,1,0-.911.71l18.384,23.623a.578.578,0,0,0,.81.1Zm28.736-6.385a.576.576,0,0,0-.547-.605l-25.323-1.277a.567.567,0,0,0-.605.548.577.577,0,0,0,.547.605l25.323,1.277h.03A.577.577,0,0,0,1418.277,2605.761Zm-11.918,18.753a.577.577,0,0,0-.518-.631l-19.364-1.915a.578.578,0,0,0-.114,1.149l19.364,1.915.058,0A.577.577,0,0,0,1406.359,2624.515Zm-24.3,10a.579.579,0,0,0,.163-.8l-9.576-14.47a.578.578,0,1,0-.964.637l9.576,14.47a.579.579,0,0,0,.483.259A.572.572,0,0,0,1382.057,2634.516Zm21.963,4.844a.577.577,0,0,0-.572-.583l-22.77-.213h-.005a.577.577,0,0,0-.005,1.155l22.77.213h.005A.577.577,0,0,0,1404.021,2639.36Zm-30.547,34.047c.038-.107,3.927-10.8,15.6-13.356a.577.577,0,1,0-.247-1.127c-12.317,2.7-16.4,13.988-16.441,14.1a.577.577,0,0,0,.354.736.588.588,0,0,0,.191.033A.579.579,0,0,0,1373.474,2673.407Z" transform="translate(-1370.224 -2537.899)" opacity="0.2"/>
      </g>
      <g id="Group_147" data-name="Group 147" transform="translate(8.995 141.894)">
        <path id="Path_302" data-name="Path 302" d="M1383.9,2840.269H1357.8v5.4h2.275l4.716,29.487h12.126l4.716-29.487h2.275Z" transform="translate(-1357.797 -2840.269)" fill="#af0"/>
        <path id="Path_303" data-name="Path 303" d="M1383.9,2840.269H1357.8v5.4h2.275l4.716,29.487h12.126l4.716-29.487h2.275Z" transform="translate(-1357.797 -2840.269)" fill="#fff" opacity="0.3"/>
      </g>
    </g>
    <g id="Group_166" data-name="Group 166" transform="translate(707.272 2146.789)">
      <path id="Path_304" data-name="Path 304" d="M794.074,2426.84l-30.368-9.912-2.7-7.141-6.176-.193-11.193-2.123,1.351,2.316,14.088,10.229,3.474,1.737,31.77,16.586Z" transform="translate(-736.564 -2334.798)" fill="#fff" stroke="#1a2e35" stroke-miterlimit="10" stroke-width="1.004"/>
      <path id="Path_305" data-name="Path 305" d="M772.882,2410.579l-2.895-1.737-5.79,2.123.965,1.158Z" transform="translate(-748.442 -2335.59)" fill="#fff" stroke="#1a2e35" stroke-linejoin="round" stroke-width="1.004"/>
      <g id="Group_150" data-name="Group 150" transform="translate(7.071 72.673)">
        <path id="Path_306" data-name="Path 306" d="M794.074,2426.84l-30.368-9.912-2.7-7.141-6.176-.193-11.193-2.123,1.351,2.316,14.088,10.229,3.474,1.737,31.77,16.586Z" transform="translate(-743.635 -2407.471)" fill="#fff"/>
        <g id="Group_149" data-name="Group 149" clip-path="url(#clip-path)">
          <path id="Path_307" data-name="Path 307" d="M794.074,2426.84l-30.368-9.912-2.7-7.141-6.176-.193-11.193-2.123,1.351,2.316,14.088,10.229,3.474,1.737,31.77,16.586Z" transform="translate(-743.635 -2407.471)" fill="#af0" stroke="#1a2e35" stroke-miterlimit="10" stroke-width="1.004" opacity="0.5"/>
        </g>
        <path id="Path_309" data-name="Path 309" d="M794.074,2426.84l-30.368-9.912-2.7-7.141-6.176-.193-11.193-2.123,1.351,2.316,14.088,10.229,3.474,1.737,31.77,16.586Z" transform="translate(-743.635 -2407.471)" fill="none" stroke="#1a2e35" stroke-miterlimit="10" stroke-width="1.004"/>
      </g>
      <g id="Group_152" data-name="Group 152" transform="translate(15.755 73.252)">
        <path id="Path_310" data-name="Path 310" d="M772.882,2410.579l-2.895-1.737-5.79,2.123.965,1.158Z" transform="translate(-764.198 -2408.842)" fill="#fff"/>
        <g id="Group_151" data-name="Group 151" clip-path="url(#clip-path-2)">
          <path id="Path_311" data-name="Path 311" d="M772.882,2410.579l-2.895-1.737-5.79,2.123.965,1.158Z" transform="translate(-764.198 -2408.842)" fill="#af0" stroke="#1a2e35" stroke-linejoin="round" stroke-width="1.004" opacity="0.5"/>
        </g>
        <path id="Path_313" data-name="Path 313" d="M772.882,2410.579l-2.895-1.737-5.79,2.123.965,1.158Z" transform="translate(-764.198 -2408.842)" fill="none" stroke="#1a2e35" stroke-linejoin="round" stroke-width="1.004"/>
      </g>
      <g id="Group_154" data-name="Group 154" transform="translate(53.17 25.578)">
        <path id="Path_314" data-name="Path 314" d="M863.572,2298.078s-.47,4.151.7,6.819,7.677,11.692,7.677,11.692l-12.146,9.738s-5.031-10.173-5.993-11.786-2.108-8.71,1.016-13.771S862.454,2294.369,863.572,2298.078Z" transform="translate(-852.786 -2295.964)" fill="#fff"/>
        <g id="Group_153" data-name="Group 153" clip-path="url(#clip-path-3)">
          <path id="Path_315" data-name="Path 315" d="M859.69,2332.559l5.271,10.917-2.8,3.99-5.294-9.448Z" transform="translate(-855.143 -2317.103)" fill="#af0" opacity="0.5" style="mix-blend-mode: multiply;isolation: isolate"/>
        </g>
        <path id="Path_317" data-name="Path 317" d="M863.572,2298.078s-.47,4.151.7,6.819,7.677,11.692,7.677,11.692l-12.146,9.738s-5.031-10.173-5.993-11.786-2.108-8.71,1.016-13.771S862.454,2294.369,863.572,2298.078Z" transform="translate(-852.786 -2295.964)" fill="none" stroke="#1a2e35" stroke-miterlimit="10" stroke-width="1.004"/>
      </g>
      <g id="Group_156" data-name="Group 156" transform="translate(32.666 6.46)">
        <path id="Path_318" data-name="Path 318" d="M839.285,2264.338c-.746-4.6-6.027-14-14.411-13.63-5.443.239-7.982,1.338-10.35,2.671a29.949,29.949,0,0,0-5.342,4.006c-4.1,4.909-5.51,6.261-4.745,10.02a11.366,11.366,0,0,0,.7,4.408,35.427,35.427,0,0,0,3.2,7.131c-.333,1.561-1.194,5.671-1.241,6.613-.044.87,2.752.285,4.184-.071,2.64,5.9,7.47,9.992,8.978,10.463,2.616.818,6.762-3.487,8.953-6.822s.539-7.1.545-8.588,4.937-4.775,6.755-5.815S840.031,2268.936,839.285,2264.338Z" transform="translate(-804.236 -2250.698)" fill="#fff"/>
        <g id="Group_155" data-name="Group 155" clip-path="url(#clip-path-4)">
          <path id="Path_319" data-name="Path 319" d="M804.436,2273.393a11.365,11.365,0,0,0,.7,4.407,35.414,35.414,0,0,0,3.2,7.131c-.333,1.562-1.194,5.671-1.242,6.613-.044.87,2.753.285,4.184-.071,2.64,5.9,7.47,9.992,8.978,10.463,2.616.818,6.762-3.487,8.953-6.822a6.8,6.8,0,0,0,1.039-2.764c-.119-.436-.2-.705-.2-.705s-1.24,4.753-3.72,4.133-6.2-5.579-8.266-7.232-1.24-3.927-1.653-6.406-6.613-4.752-7.026-6.2,1.033-7.439,1.033-7.439,2.344-3.137,1.86-1.86a8.817,8.817,0,0,0,.62,6.819,4.709,4.709,0,0,0,4.34,2.687l2.273-11.159-4.753-3.926-5.566,2.312C805.079,2268.281,803.671,2269.633,804.436,2273.393Z" transform="translate(-804.236 -2256.684)" fill="#af0" opacity="0.5" style="mix-blend-mode: multiply;isolation: isolate"/>
        </g>
        <path id="Path_321" data-name="Path 321" d="M839.285,2264.338c-.746-4.6-6.027-14-14.411-13.63-5.443.239-7.982,1.338-10.35,2.671a29.949,29.949,0,0,0-5.342,4.006c-4.1,4.909-5.51,6.261-4.745,10.02a11.366,11.366,0,0,0,.7,4.408,35.427,35.427,0,0,0,3.2,7.131c-.333,1.561-1.194,5.671-1.241,6.613-.044.87,2.752.285,4.184-.071,2.64,5.9,7.47,9.992,8.978,10.463,2.616.818,6.762-3.487,8.953-6.822s.539-7.1.545-8.588,4.937-4.775,6.755-5.815S840.031,2268.936,839.285,2264.338Z" transform="translate(-804.236 -2250.698)" fill="none" stroke="#1a2e35" stroke-miterlimit="10" stroke-width="1"/>
      </g>
      <path id="Path_322" data-name="Path 322" d="M816.626,2310.973l.88,2.639s1.98.66,4.4-1.98" transform="translate(-778.728 -2279.056)" fill="none" stroke="#1a2e35" stroke-linecap="round" stroke-miterlimit="10" stroke-width="1"/>
      <path id="Path_323" data-name="Path 323" d="M832.77,2335.624s2.2-.22,3.079-3.3" transform="translate(-788.053 -2291.39)" fill="none" stroke="#1a2e35" stroke-linecap="round" stroke-miterlimit="10" stroke-width="1"/>
      <path id="Path_324" data-name="Path 324" d="M812.98,2303.057s.66-1.979,4.619-1.979" transform="translate(-776.622 -2273.34)" fill="none" stroke="#1a2e35" stroke-linecap="round" stroke-miterlimit="10" stroke-width="1"/>
      <g id="Group_158" data-name="Group 158" transform="translate(25.041 0)">
        <path id="Path_325" data-name="Path 325" d="M817.784,2238.2a66.468,66.468,0,0,0-8.681-.668s-8.681-5.008-17.028.334-4.34,14.691-4.34,17.028-2.671,2.337-1,5.342,7.274,1.35,7.274,1.35a8.046,8.046,0,0,1,3.018-5.856c3.005-2.337,5.4-2.839,6.4-2.172,0,0-.668,5.008.334,7.012,0,0,3.339,1.669,4.34,1.669s-.654,1.416,2.671,2.671a4.182,4.182,0,0,0,3.653-.433c.486-2.03,1.562-5.082,3.552-4.375,2.928,1.042,5.587,8.239,1.635,10.686,4.76.866,10.525-7.547,10.859-15.227S822.725,2239.021,817.784,2238.2Z" transform="translate(-786.184 -2235.403)" fill="#1a2e35"/>
        <g id="Group_157" data-name="Group 157" transform="translate(2.37 3.235)">
          <path id="Path_326" data-name="Path 326" d="M827.451,2270.189s2.447-1.317,5.459,1.506,8.847,6.588,16.565,4.517" transform="translate(-812.393 -2258.555)" fill="none" stroke="#fff" stroke-linecap="round" stroke-linejoin="round" stroke-width="0.5"/>
          <path id="Path_327" data-name="Path 327" d="M826.56,2261.657s1.694-2.635,4.517-2.635,9.412,3.953,14.682,3.953" transform="translate(-811.878 -2252.281)" fill="none" stroke="#fff" stroke-linecap="round" stroke-linejoin="round" stroke-width="0.5"/>
          <path id="Path_328" data-name="Path 328" d="M811.265,2274.555s-3.2-3.953-6.211-.753-1.135,6.228-1.135,6.228" transform="translate(-798.465 -2260.097)" fill="none" stroke="#fff" stroke-linecap="round" stroke-linejoin="round" stroke-width="0.5"/>
          <path id="Path_329" data-name="Path 329" d="M791.8,2267.015a9.8,9.8,0,0,0,3.2-6.4c.376-4.141,6.023-7.718,9.6-4.329" transform="translate(-791.797 -2249.922)" fill="none" stroke="#fff" stroke-linecap="round" stroke-linejoin="round" stroke-width="0.5"/>
          <path id="Path_330" data-name="Path 330" d="M805.613,2245.1s5.647-5.459,10.353,1.506" transform="translate(-799.778 -2243.062)" fill="none" stroke="#fff" stroke-linecap="round" stroke-linejoin="round" stroke-width="0.5"/>
        </g>
      </g>
      <g id="Group_159" data-name="Group 159" transform="translate(48.883 273.704)">
        <path id="Path_331" data-name="Path 331" d="M873.01,2883.457s3.476,5.408,3.09,8.885l-.386,3.477s-12.747,3.476-15.452,3.476-16.992-1.343-16.992-1.343l-.612-2.447a.8.8,0,0,1,.44-.924l12.754-5.948,4.023-4.4Z" transform="translate(-842.635 -2883.457)" fill="#fff" stroke="#1a2e35" stroke-miterlimit="10" stroke-width="1.004"/>
        <path id="Path_332" data-name="Path 332" d="M862.466,2910.187c3.459.266,10.032-1.85,13.789-3.193-.269,2.415-.269,2.421-.269,2.421s-12.747,3.476-15.452,3.476-16.992-1.343-16.992-1.343l-.437-1.747C845.324,2909.8,857.895,2909.835,862.466,2910.187Z" transform="translate(-842.907 -2897.053)" fill="#af0" stroke="#1a2e35" stroke-miterlimit="10" stroke-width="1.004"/>
      </g>
      <path id="Path_333" data-name="Path 333" d="M847.574,2895.152l-18.565,8.074s-1.59,3.974,0,4.769,36.169,0,36.169,0,2.394-6.281-1.386-10.494S847.574,2895.152,847.574,2895.152Z" transform="translate(-785.473 -2616.271)" fill="#fff" stroke="#1a2e35" stroke-miterlimit="10" stroke-width="1.004"/>
      <path id="Path_334" data-name="Path 334" d="M865.181,2922.62s-34.579.8-36.169,0c-.766-.383-.792-1.5-.615-2.56h37.393A13.412,13.412,0,0,1,865.181,2922.62Z" transform="translate(-785.475 -2630.896)" fill="#af0" stroke="#1a2e35" stroke-miterlimit="10" stroke-width="1.004"/>
      <path id="Path_335" data-name="Path 335" d="M840.438,2558.809s-4.856,21.5-6.692,34.943-2.914,40.386-2.528,43.477,19.7,54.853,19.7,54.853l1.931,4.635,13.52-2.7s-6.181-19.7-8.5-30.517-7.34-28.585-7.34-31.675,12.028-62.094,12.851-65.974,4.748-9.818,4.748-9.818l-25.887-.528Z" transform="translate(-787.112 -2420.308)" fill="#af0" stroke="#1a2e35" stroke-miterlimit="10" stroke-width="1.004"/>
      <path id="Path_336" data-name="Path 336" d="M850.48,2554.226s-2.841,19.634-1.674,33.29,3.711,42.709,3.711,47.03,6.981,30.162,7.407,38.27c.617,11.728-.257,17.539-.257,17.539l-.412,4.251s8.147,1.156,9.928,1.666a21.992,21.992,0,0,0,6.29.684s2.968-13.028,2.968-24.14-2.469-33.949-3.7-43.208,2.643-44.982,4.833-51.67,6.995-20.789,3.764-27.995S850.48,2554.226,850.48,2554.226Z" transform="translate(-797.154 -2415.726)" fill="#af0" stroke="#1a2e35" stroke-miterlimit="10" stroke-width="1.004"/>
      <path id="Path_337" data-name="Path 337" d="M885.1,2544.649l-.3,8.779s-5.26,1.04-12.342,2.27c-5.846,1.015-20.527-.267-25.474-.745a1.726,1.726,0,0,1-1.556-1.823l.482-7.931Z" transform="translate(-795.365 -2414.039)" fill="#1a2e35"/>
      <g id="Group_161" data-name="Group 161" transform="translate(50.463 43.087)">
        <path id="Path_338" data-name="Path 338" d="M865.1,2337.421s-8.278,8.976-11.429,14.557-4.362,14.13-5.483,20.857,2,22.537,1.111,29.8l-2.834,22.86s-.608,1.558,1.425,3.249,12,2.32,20.98,2.771c3.285.165,13.093-1.951,14.692-2.05,1.937-.121,2.007-2.581,2.089-4.52.385-9.106,2.029-33.366,3.1-43.939C890.933,2359.454,878.763,2338.65,865.1,2337.421Z" transform="translate(-846.375 -2337.421)" fill="#fff" stroke="#1a2e35" stroke-miterlimit="10" stroke-width="1.004"/>
        <g id="Group_160" data-name="Group 160" transform="translate(0.372)">
          <path id="Path_339" data-name="Path 339" d="M889.83,2445.258c.371-4.788.739-9.127,1.056-12.26.095-.936.153-1.868.2-2.8l-22.051,3.717-18.936-6.485a104.95,104.95,0,0,0,.661,11.734l18.582,5.2Z" transform="translate(-848.886 -2389.415)" fill="#af0" style="mix-blend-mode: multiply;isolation: isolate"/>
          <path id="Path_340" data-name="Path 340" d="M880.388,2339.572c-1.252,1.395-3.741,4.22-6.113,7.231l13.959,14.227,4.611-1.844Z" transform="translate(-862.864 -2338.664)" fill="#af0" style="mix-blend-mode: multiply;isolation: isolate"/>
          <path id="Path_341" data-name="Path 341" d="M872,2337.421s-8.278,8.976-11.429,14.557a28.829,28.829,0,0,0-2.242,5.333l16.694-19.284A15.177,15.177,0,0,0,872,2337.421Z" transform="translate(-853.654 -2337.421)" fill="#1a2e35"/>
          <path id="Path_342" data-name="Path 342" d="M852.076,2395.437l18.109,5.953,22-2.521a51.609,51.609,0,0,0-3.609-15.964l-17.777,7.11-15.852-7.183A82.378,82.378,0,0,0,852.076,2395.437Z" transform="translate(-850.04 -2363.653)" fill="#af0" style="mix-blend-mode: multiply;isolation: isolate"/>
          <path id="Path_343" data-name="Path 343" d="M880.477,2517.954a55.954,55.954,0,0,1-27.429-2.24l-4.417-1.513-1.375,11.1,5.033,1.409a75.824,75.824,0,0,0,29.444,2.272l4.068-.486a3.748,3.748,0,0,0,.354-1.431c.1-2.465.3-6.044.554-10.157Z" transform="translate(-847.256 -2439.538)" fill="#af0" style="mix-blend-mode: multiply;isolation: isolate"/>
          <path id="Path_344" data-name="Path 344" d="M885.517,2481.724a55.954,55.954,0,0,1-27.429-2.24l-5.623-1.925a37.332,37.332,0,0,1-.082,6.025l-.66,5.323,5.605,1.57a75.824,75.824,0,0,0,29.444,2.272l2.724-.326c.235-3.672.5-7.619.783-11.5Z" transform="translate(-849.837 -2418.371)" fill="#af0" style="mix-blend-mode: multiply;isolation: isolate"/>
        </g>
      </g>
      <rect id="Rectangle_43" data-name="Rectangle 43" width="22.884" height="1.227" transform="translate(17.834 81.776) rotate(-141.197)" fill="#1a2e35"/>
      <g id="Group_163" data-name="Group 163" transform="translate(4.757 53.037)">
        <path id="Path_345" data-name="Path 345" d="M811.169,2360.98s6.536,4.456,6.686,14.984c.065,4.572-.411,8.915-1.471,16.472s-7.652,32.142-12.772,35.129-13.092-2.655-13.092-2.655l-38.5-25.554-9.3-7.561-4.566-8.709,1.374-2.721,11.381,8.737-6.112-5.648,1.2-1.529,2.209,1.543,6.466,2.412,1.414,9.254,1.99,1.367,36.785,13.4s-.457-19.814-.117-23.609.811-13.317,4.872-20.222" transform="translate(-738.156 -2360.98)" fill="#fff"/>
        <g id="Group_162" data-name="Group 162" clip-path="url(#clip-path-5)">
          <path id="Path_346" data-name="Path 346" d="M794.63,2421.431c.045,6.844.233,14.979.233,14.979l-36.785-13.4-1.99-1.367-1.414-9.254-6.466-2.412L746,2408.437l-1.2,1.529,6.112,5.649-11.381-8.737-1.374,2.721,4.566,8.709,9.3,7.561,2.345,1.557,50.866,16.392Z" transform="translate(-738.156 -2387.492)" fill="#af0" opacity="0.5" style="mix-blend-mode: multiply;isolation: isolate"/>
        </g>
        <path id="Path_348" data-name="Path 348" d="M811.169,2360.98s6.536,4.456,6.686,14.984c.065,4.572-.411,8.915-1.471,16.472s-7.652,32.142-12.772,35.129-13.092-2.655-13.092-2.655l-38.5-25.554-9.3-7.561-4.566-8.709,1.374-2.721,11.381,8.737-6.112-5.648,1.2-1.529,2.209,1.543,6.466,2.412,1.414,9.254,1.99,1.367,36.785,13.4s-.457-19.814-.117-23.609.811-13.317,4.872-20.222" transform="translate(-738.156 -2360.98)" fill="none" stroke="#1a2e35" stroke-miterlimit="10" stroke-width="1.004"/>
      </g>
      <g id="Group_165" data-name="Group 165" transform="translate(58.696 50.344)">
        <path id="Path_349" data-name="Path 349" d="M868.637,2406.213l14.061,10.131,3.641-6.451s2.512-1.985,2.888-3.474-.1-3.925.272-5.414,2.257-2.9,2.438-6.512.032-6.633.032-6.633,3.042-12.513,2.712-17.958-5.576-15.057-9.787-15.268-9.671.419-13.914,6.84-3.376,25.161-4.038,26.334.254,6.949.254,6.949a3.252,3.252,0,0,0-1.324,2.346c-.076,1.5,1.548,5.2,1.548,5.2Z" transform="translate(-865.87 -2354.602)" fill="#fff" stroke="#1a2e35" stroke-miterlimit="10" stroke-width="1.004"/>
        <g id="Group_164" data-name="Group 164" transform="translate(0.832 7.903)">
          <path id="Path_350" data-name="Path 350" d="M868.437,2421.845a25.945,25.945,0,0,1-.356,4.807c-.594,1.052.081,5.8.226,6.764a54.6,54.6,0,0,0,24.456,1.88,9.232,9.232,0,0,0,.314-1.959c.181-3.61.032-6.633.032-6.633s.271-1.114.641-2.816A88.649,88.649,0,0,1,868.437,2421.845Z" transform="translate(-867.84 -2401.348)" fill="#af0" style="mix-blend-mode: multiply;isolation: isolate"/>
          <path id="Path_351" data-name="Path 351" d="M873.2,2373.315c-1.319,2.649-2.052,6.627-2.48,10.66a54.944,54.944,0,0,0,26.3,3.2,35.211,35.211,0,0,0,.467-6.46,17.856,17.856,0,0,0-1.2-4.978A91,91,0,0,1,873.2,2373.315Z" transform="translate(-869.506 -2373.315)" fill="#af0" style="mix-blend-mode: multiply;isolation: isolate"/>
          <path id="Path_352" data-name="Path 352" d="M869.611,2467.782l1.187,3.81,14.061,10.131,3.641-6.451s2.512-1.985,2.888-3.474a4.979,4.979,0,0,0,.117-.794A86.106,86.106,0,0,1,869.611,2467.782Z" transform="translate(-868.863 -2427.884)" fill="#1a2e35"/>
        </g>
      </g>
      <path id="Path_353" data-name="Path 353" d="M885.1,2711.783s.307-7.988,1.844-19.662-2.151-28.265-2.765-31.03.307-8.909-.307-11.06-3.608-11.357-1.841-22.035,3.186-38.907,3.186-38.907-4.433-3.607-5.735-8.286-.305-6.167-.305-6.167" transform="translate(-814.647 -2431.361)" fill="none" stroke="#1a2e35" stroke-miterlimit="10" stroke-width="1.004"/>
      <line id="Line_15" data-name="Line 15" x1="1.706" y2="9.45" transform="translate(70.798 143.675)" fill="none" stroke="#1a2e35" stroke-miterlimit="10" stroke-width="1.004"/>
    </g>
    <text id="PDF" transform="translate(863.067 2229.264)" fill="#fff" font-size="30" font-family="Helvetica"><tspan x="0" y="0">PDF</tspan></text>
  </g>
</svg>
