<svg xmlns="http://www.w3.org/2000/svg" xmlns:xlink="http://www.w3.org/1999/xlink" width="366.3" height="368.806" viewBox="0 0 366.3 368.806">
  <defs>
    <clipPath id="clip-path">
      <path id="Path_89" data-name="Path 89" d="M210.326,232.238s-26.05-3.085-43.188,10.282-31.877,69.238-31.534,95.973,10.283,40.1,35.3,51.071,71.637,6.855,97.687-1.371,34.618-37.018,34.275-52.442-17.48-33.248-23.307-37.018-22.279-11.654-30.506-23.993S228.834,235.665,210.326,232.238Z" fill="#0f4c81" stroke="#263238" stroke-linecap="round" stroke-linejoin="round" stroke-width="1"/>
    </clipPath>
    <clipPath id="clip-path-2">
      <path id="Path_97" data-name="Path 97" d="M209.4,234.986s-9.333,3-10.666,5.333-.334,18.667-.334,20.667,1.167-1.167,2.167-3.5,4.5-5.833,5.667-5.5,1.833,1.667,1.833,3.833,2.667,5.167,5,6.834,4.5,3.333,4.5,3.333,4.833-7,6-8.833,1-5.667,1.167-7,3.166,3.666,3.833,2.333-1.5-2.5-3.833-6.167-1.667-7.5-5.167-10.166S212.068,234.319,209.4,234.986Z" fill="#fff" stroke="#263238" stroke-linecap="round" stroke-linejoin="round" stroke-width="1"/>
    </clipPath>
    <clipPath id="clip-path-3">
      <path id="Path_102" data-name="Path 102" d="M187.318,302.569s-5.75-8.25-12.75-9-15.5,5-15.75,7-2,12.75-.75,14.25,6,2.75,15.25-.25S186.318,307.819,187.318,302.569Z" fill="#fff" stroke="#263238" stroke-linecap="round" stroke-linejoin="round" stroke-width="1"/>
    </clipPath>
    <clipPath id="clip-path-4">
      <path id="Path_107" data-name="Path 107" d="M167.818,304.819s-9.382,3.724-9.75,11c-.2,4.026,6.5,5.75,13.5,5.75s17-8.75,23.5-12.5,21.5-12.5,23.25-13.25,7.75,1.25,10.25,2a33.814,33.814,0,0,0,7.25.75s3.5,5.5,5.25,5.5-3.75-8.25-4.5-10-13-5.75-14.5-5.75-36.5,8.75-41.75,10.75S167.818,304.819,167.818,304.819Z" fill="#fff" stroke="#263238" stroke-linecap="round" stroke-linejoin="round" stroke-width="1"/>
    </clipPath>
    <clipPath id="clip-path-5">
      <path id="Path_113" data-name="Path 113" d="M233.318,292.069l-26.781,18.941,61.25-1.75,20.531-16.941Z" fill="#fff" stroke="#263238" stroke-linecap="round" stroke-linejoin="round" stroke-width="1"/>
    </clipPath>
    <clipPath id="clip-path-6">
      <path id="Path_118" data-name="Path 118" d="M253.568,310.819s22-19.25,43.75-25.75,26.25-5.5,25.75,4.25-11,60.75-18,73.75-15.75,36.75-15.5,41.25,8.75,17.75,16.25,22.5,6.75,10.5,2,11.5-10.25,2.75-26.5-7.75-23-25.5-22-29.25,11.5-8.75,15.75-16.25,11.25-35.5,11.75-48.25a75.758,75.758,0,0,1,5-23.5s-27.5,5-35.5,10Z" fill="#fff" stroke="#263238" stroke-linecap="round" stroke-linejoin="round" stroke-width="1"/>
    </clipPath>
    <clipPath id="clip-path-7">
      <path id="Path_125" data-name="Path 125" d="M275.068,385.069a18.85,18.85,0,0,1-1.062,1.64,25.692,25.692,0,0,1,14.062,5.86,45.736,45.736,0,0,1,3.419,3.306c4.792-6.432,10.18-26.749,16.262-35.106,15.715-21.59,14.819-61.7,15.319-71.45s-4-10.75-25.75-4.25-43.75,25.75-43.75,25.75l2.75,12.5c8-5,35.5-10,35.5-10a75.758,75.758,0,0,0-5,23.5C286.318,349.569,279.318,377.569,275.068,385.069Z" fill="#263238" stroke="#263238" stroke-linecap="round" stroke-linejoin="round" stroke-width="1"/>
    </clipPath>
    <clipPath id="clip-path-8">
      <path id="Path_131" data-name="Path 131" d="M188.068,314.819s-8,4.5-10.75,9.5,9.083,13.334,21.583,12.834,35.417-14.084,35.417-14.084.25,22,4.5,30,23.75,27.5,31.5,32.5,33.75,23.75,37.75,26.75,11.5,8.5,13.25,8.75,20-22,24.25-29.5,8-23.25,6.5-26.75-4.5-.5-7.5,2-30.5,20.75-33,22a27.437,27.437,0,0,1-4.25,1.75s-22.5-21.5-34.5-38-13-37.75-17.5-45.75-11-11.5-20.75-10.5S204.568,302.569,188.068,314.819Z" fill="#fff" stroke="#263238" stroke-linecap="round" stroke-linejoin="round" stroke-width="1"/>
    </clipPath>
    <clipPath id="clip-path-9">
      <path id="Path_136" data-name="Path 136" d="M305.766,389.066c-5.287-5.157-25.12-31.767-32.947-47.065-11.47-22.418-12.7-30.059-17.205-38.059s-11.3-8.623-21.046-7.623-27.195,2.81-48.6,14.95c0,0-8.984,4.884-11.734,9.884s7.261,17.59,24.666,16c12.458-1.139,35.417-14.084,35.417-14.084s.25,22,4.5,30,23.75,27.5,31.5,32.5c4.915,3.171,17.165,11.869,26.493,18.576C299.152,395.772,303.284,391.185,305.766,389.066Z" fill="#263238" stroke="#263238" stroke-linecap="round" stroke-linejoin="round" stroke-width="1"/>
    </clipPath>
    <clipPath id="clip-path-10">
      <path id="Path_142" data-name="Path 142" d="M345.568,391.569c4.25-7.5,8-23.25,6.5-26.75-.869-2.027-2.243-1.868-3.827-.893,1.052,4.677-.01,13.688-5.173,23.393-4.607,8.661-18.847,23.966-26.022,31.421a16.754,16.754,0,0,0,4.272,2.329C323.068,421.319,341.318,399.069,345.568,391.569Z" fill="#fff" stroke="#263238" stroke-linecap="round" stroke-linejoin="round" stroke-width="1"/>
    </clipPath>
    <clipPath id="clip-path-11">
      <path id="Path_149" data-name="Path 149" d="M305.818,426.819a32.957,32.957,0,0,1-6.663-5.994c-5.16-2.191-12.044-5.037-18.087-8.756-6.5-4-5-6.5-8.75-10.25-2.877-2.877-8.539-3.251-11.024-3.27a6.829,6.829,0,0,0-1.976,2.77c-1,3.75,5.75,18.75,22,29.25s21.75,8.75,26.5,7.75S313.318,431.569,305.818,426.819Z" fill="#fff" stroke="#263238" stroke-linecap="round" stroke-linejoin="round" stroke-width="1"/>
    </clipPath>
    <clipPath id="clip-path-12">
      <path id="Path_153" data-name="Path 153" d="M307.068,428.569c-6.5-3.75-19.75-6.25-28.25-12s-6.25-10.75-12.5-14.75a6.37,6.37,0,0,0-7.018-.4c-.868,3.9,5.9,18.736,22.018,29.151,16.25,10.5,21.75,8.75,26.5,7.75,3.157-.664,4.529-3.43,2.9-6.6A13.746,13.746,0,0,0,307.068,428.569Z" fill="#263238" stroke="#263238" stroke-linecap="round" stroke-linejoin="round" stroke-width="1"/>
    </clipPath>
    <clipPath id="clip-path-13">
      <path id="Path_164" data-name="Path 164" d="M206.721,222.024s1.165,12.63,1.655,16.614,1.609,15.449,2.759,19.24,7.414,10.383,8.021,8.858,3.7-11.821,2.463-17.944-1.618-11.445-.845-12.977,3.54-3.308,3.54-3.308a98.487,98.487,0,0,1-9.389-5.469C210.47,224.045,207.335,220.665,206.721,222.024Z" fill="#fff" stroke="#263238" stroke-linecap="round" stroke-linejoin="round" stroke-width="1"/>
    </clipPath>
    <clipPath id="clip-path-14">
      <path id="Path_169" data-name="Path 169" d="M206.255,223.827s7.2,6.028,12.728,8.2,14.01,2.061,15.2-.816-2.1-25.6-4.942-31.579-5.9-6.079-10.921-6.534-15.091,3.64-16.859,8.5.245,11.742,1.711,15.819A30.109,30.109,0,0,0,206.255,223.827Z" fill="#fff" stroke="#263238" stroke-linecap="round" stroke-linejoin="round" stroke-width="1"/>
    </clipPath>
    <clipPath id="clip-path-15">
      <path id="Path_186" data-name="Path 186" d="M208.415,217.866s-3.231-4.661-6.639-2.785-.753,8.517,1.3,10.83,6.016-1.978,6.408-3.081" fill="#fff" stroke="#263238" stroke-linecap="round" stroke-linejoin="round" stroke-width="1"/>
    </clipPath>
  </defs>
  <g id="Group_97" data-name="Group 97" transform="translate(-66.182 -70.722)" opacity="0.71">
    <g id="Group_49" data-name="Group 49">
      <path id="Path_82" data-name="Path 82" d="M410.461,333.1c7.476-61.053-28.744-142.2-66.3-175.706C276.371,96.9,220.05,108.6,176.245,130.27s-50.063,94-80.309,126.734-47.452,76.751-1.561,120.573,82.913,21.555,130.89,18.779,111.6,19.1,146.018.076C395.317,383.146,407.157,360.087,410.461,333.1Z" fill="#0f4c81"/>
      <path id="Path_83" data-name="Path 83" d="M410.461,333.1c7.476-61.053-28.744-142.2-66.3-175.706C276.371,96.9,220.05,108.6,176.245,130.27s-50.063,94-80.309,126.734-47.452,76.751-1.561,120.573,82.913,21.555,130.89,18.779,111.6,19.1,146.018.076C395.317,383.146,407.157,360.087,410.461,333.1Z" fill="#fff" opacity="0.7"/>
    </g>
    <g id="Group_51" data-name="Group 51">
      <g id="Group_50" data-name="Group 50">
        <line id="Line_1" data-name="Line 1" y1="224.939" transform="translate(220.608 106.013)" fill="none" stroke="#263238" stroke-linecap="round" stroke-linejoin="round" stroke-width="1"/>
        <path id="Path_84" data-name="Path 84" d="M74.393,333.177H216.285l215.567,69.582" fill="none" stroke="#263238" stroke-linecap="round" stroke-linejoin="round" stroke-width="1"/>
      </g>
      <path id="Path_85" data-name="Path 85" d="M139.032,327.9H129.2V165.837h20.229l-8.732-31.51H114.5l-8.732,31.51H126V327.9h-9.829a9.6,9.6,0,0,0-9.591,9.418c0,.024-.009.048-.009.072s0,.021,0,.032,0,.052,0,.078h.014c.293,2.261,9.578,4.075,21,4.075s20.7-1.814,21-4.075h.052A9.6,9.6,0,0,0,139.032,327.9Z" fill="#263238"/>
      <path id="Path_86" data-name="Path 86" d="M269.589,94.858V285.683l143.667,23.636V71.222ZM409.532,149.5l-73.049,4.137V87.342l73.049-11.624Zm-73.049,11.115,73.049-3.349v66.661l-73.049-3.415Zm-5.928,59.62L272,217.495V163.57l58.552-2.685Zm0-131.948v65.686L272,157.287V97.6ZM272,223.778l58.552,3.369v65.109L272,282.939Zm64.48,69.422V227.488l73.049,4.2v73.133Z" fill="#263238" stroke="#263238" stroke-linecap="round" stroke-linejoin="round" stroke-width="1"/>
    </g>
    <g id="Group_93" data-name="Group 93">
      <g id="Group_52" data-name="Group 52">
        <ellipse id="Ellipse_1" data-name="Ellipse 1" cx="114.946" cy="35.814" rx="114.946" ry="35.814" transform="translate(105.091 354.324)" fill="#0f4c81"/>
        <ellipse id="Ellipse_2" data-name="Ellipse 2" cx="114.946" cy="35.814" rx="114.946" ry="35.814" transform="translate(105.091 354.324)" fill="#fff" opacity="0.5"/>
      </g>
      <g id="Group_54" data-name="Group 54">
        <path id="Path_87" data-name="Path 87" d="M210.326,232.238s-26.05-3.085-43.188,10.282-31.877,69.238-31.534,95.973,10.283,40.1,35.3,51.071,71.637,6.855,97.687-1.371,34.618-37.018,34.275-52.442-17.48-33.248-23.307-37.018-22.279-11.654-30.506-23.993S228.834,235.665,210.326,232.238Z" fill="#0f4c81"/>
        <g id="Group_53" data-name="Group 53" clip-path="url(#clip-path)">
          <path id="Path_88" data-name="Path 88" d="M273.372,386.372c-9.849-1.33-21.53-4-30.372-9.372-18.667-11.333-23.333-32.667-30-40.667s-18.667-7.333-24-16,3.333-72.666-12-76.666a35.083,35.083,0,0,0-9.567-1.365c-.1.075-.2.143-.295.218C150,255.888,135.261,311.758,135.6,338.493s10.283,40.1,35.3,51.071,71.637,6.855,97.687-1.371A44.145,44.145,0,0,0,273.372,386.372Z" opacity="0.13"/>
        </g>
        <path id="Path_90" data-name="Path 90" d="M210.326,232.238s-26.05-3.085-43.188,10.282-31.877,69.238-31.534,95.973,10.283,40.1,35.3,51.071,71.637,6.855,97.687-1.371,34.618-37.018,34.275-52.442-17.48-33.248-23.307-37.018-22.279-11.654-30.506-23.993S228.834,235.665,210.326,232.238Z" fill="none" stroke="#263238" stroke-linecap="round" stroke-linejoin="round" stroke-width="1"/>
      </g>
      <g id="Group_60" data-name="Group 60">
        <g id="Group_55" data-name="Group 55">
          <path id="Path_91" data-name="Path 91" d="M200.068,244.319s-17,3.25-20,6.25-15.5,50-15.5,50a18.6,18.6,0,0,1,10.5.5c5,2,5.5,7.25,6,9.75a89.458,89.458,0,0,1,.75,9S232.352,315.3,243.1,312.8s27.11-3.649,27.11-3.649-27.644-62.337-31.894-64.587-22-2.5-24.5-2S200.068,244.319,200.068,244.319Z" fill="#263238" stroke="#263238" stroke-linecap="round" stroke-linejoin="round" stroke-width="1"/>
          <line id="Line_2" data-name="Line 2" y1="34.75" x2="4.25" transform="translate(183.318 267.319)" fill="none" stroke="#fff" stroke-linecap="round" stroke-linejoin="round" stroke-width="1"/>
          <line id="Line_3" data-name="Line 3" y1="7.5" x2="5.75" transform="translate(186.568 269.069)" fill="none" stroke="#fff" stroke-linecap="round" stroke-linejoin="round" stroke-width="1"/>
          <path id="Path_92" data-name="Path 92" d="M203.818,281.069s16.25-5.25,27-5.25" fill="none" stroke="#fff" stroke-linecap="round" stroke-linejoin="round" stroke-width="1"/>
          <path id="Path_93" data-name="Path 93" d="M219.156,266.736l-1.088,8.333s2.75,0,3,1.25a3.318,3.318,0,0,1-1,2.5s7.75,4.25,8.75,9.25" fill="none" stroke="#fff" stroke-linecap="round" stroke-linejoin="round" stroke-width="1"/>
        </g>
        <g id="Group_57" data-name="Group 57">
          <path id="Path_94" data-name="Path 94" d="M209.4,234.986s-9.333,3-10.666,5.333-.334,18.667-.334,20.667,1.167-1.167,2.167-3.5,4.5-5.833,5.667-5.5,1.833,1.667,1.833,3.833,2.667,5.167,5,6.834,4.5,3.333,4.5,3.333,4.833-7,6-8.833,1-5.667,1.167-7,3.166,3.666,3.833,2.333-1.5-2.5-3.833-6.167-1.667-7.5-5.167-10.166S212.068,234.319,209.4,234.986Z" fill="#fff"/>
          <g id="Group_56" data-name="Group 56" clip-path="url(#clip-path-2)">
            <path id="Path_95" data-name="Path 95" d="M198.735,240.319c-.89,1.557-.741,9.345-.543,14.951,2.125-2.743,6.514-7.915,9.058-6.937,3.236,1.245,4.481,10.458,4.481,10.458l-2.187-23.84-.143.035S200.068,237.986,198.735,240.319Z" fill="#0f4c81"/>
            <path id="Path_96" data-name="Path 96" d="M198.735,240.319c-.89,1.557-.741,9.345-.543,14.951,2.125-2.743,6.514-7.915,9.058-6.937,3.236,1.245,4.481,10.458,4.481,10.458l-2.187-23.84-.143.035S200.068,237.986,198.735,240.319Z" fill="#fff" opacity="0.5"/>
          </g>
          <path id="Path_98" data-name="Path 98" d="M209.4,234.986s-9.333,3-10.666,5.333-.334,18.667-.334,20.667,1.167-1.167,2.167-3.5,4.5-5.833,5.667-5.5,1.833,1.667,1.833,3.833,2.667,5.167,5,6.834,4.5,3.333,4.5,3.333,4.833-7,6-8.833,1-5.667,1.167-7,3.166,3.666,3.833,2.333-1.5-2.5-3.833-6.167-1.667-7.5-5.167-10.166S212.068,234.319,209.4,234.986Z" fill="none" stroke="#263238" stroke-linecap="round" stroke-linejoin="round" stroke-width="1"/>
        </g>
        <g id="Group_59" data-name="Group 59">
          <path id="Path_99" data-name="Path 99" d="M187.318,302.569s-5.75-8.25-12.75-9-15.5,5-15.75,7-2,12.75-.75,14.25,6,2.75,15.25-.25S186.318,307.819,187.318,302.569Z" fill="#fff"/>
          <g id="Group_58" data-name="Group 58" clip-path="url(#clip-path-3)">
            <path id="Path_100" data-name="Path 100" d="M163.925,314.565s-1.992-5.727-1-7.719,4.98-4.98,7.47-7.967-5.831,1.69-6.225,0c-.317-1.361,4.384-4.075,6.235-5.085-5.82,1.113-11.389,5.162-11.591,6.775-.25,2-2,12.75-.75,14.25.645.775,2.232,1.477,4.881,1.568C163.552,315.335,163.925,314.565,163.925,314.565Z" fill="#0f4c81"/>
            <path id="Path_101" data-name="Path 101" d="M163.925,314.565s-1.992-5.727-1-7.719,4.98-4.98,7.47-7.967-5.831,1.69-6.225,0c-.317-1.361,4.384-4.075,6.235-5.085-5.82,1.113-11.389,5.162-11.591,6.775-.25,2-2,12.75-.75,14.25.645.775,2.232,1.477,4.881,1.568C163.552,315.335,163.925,314.565,163.925,314.565Z" fill="#fff" opacity="0.5"/>
          </g>
          <path id="Path_103" data-name="Path 103" d="M187.318,302.569s-5.75-8.25-12.75-9-15.5,5-15.75,7-2,12.75-.75,14.25,6,2.75,15.25-.25S186.318,307.819,187.318,302.569Z" fill="none" stroke="#263238" stroke-linecap="round" stroke-linejoin="round" stroke-width="1"/>
        </g>
      </g>
      <g id="Group_62" data-name="Group 62">
        <path id="Path_104" data-name="Path 104" d="M167.818,304.819s-9.382,3.724-9.75,11c-.2,4.026,6.5,5.75,13.5,5.75s17-8.75,23.5-12.5,21.5-12.5,23.25-13.25,7.75,1.25,10.25,2a33.814,33.814,0,0,0,7.25.75s3.5,5.5,5.25,5.5-3.75-8.25-4.5-10-13-5.75-14.5-5.75-36.5,8.75-41.75,10.75S167.818,304.819,167.818,304.819Z" fill="#fff"/>
        <g id="Group_61" data-name="Group 61" clip-path="url(#clip-path-4)">
          <path id="Path_105" data-name="Path 105" d="M187.425,303.778c14.3-7.148,34.643-15.459,34.643-15.459-1.5,0-36.5,8.75-41.75,10.75s-12.5,5.75-12.5,5.75-9.382,3.724-9.75,11c-.2,4.026,6.5,5.75,13.5,5.75s17-8.75,23.5-12.5c1.1-.636,2.454-1.418,3.939-2.278C189.456,308.02,176.7,309.143,187.425,303.778Z" fill="#0f4c81"/>
          <path id="Path_106" data-name="Path 106" d="M187.425,303.778c14.3-7.148,34.643-15.459,34.643-15.459-1.5,0-36.5,8.75-41.75,10.75s-12.5,5.75-12.5,5.75-9.382,3.724-9.75,11c-.2,4.026,6.5,5.75,13.5,5.75s17-8.75,23.5-12.5c1.1-.636,2.454-1.418,3.939-2.278C189.456,308.02,176.7,309.143,187.425,303.778Z" fill="#fff" opacity="0.5"/>
        </g>
        <path id="Path_108" data-name="Path 108" d="M167.818,304.819s-9.382,3.724-9.75,11c-.2,4.026,6.5,5.75,13.5,5.75s17-8.75,23.5-12.5,21.5-12.5,23.25-13.25,7.75,1.25,10.25,2a33.814,33.814,0,0,0,7.25.75s3.5,5.5,5.25,5.5-3.75-8.25-4.5-10-13-5.75-14.5-5.75-36.5,8.75-41.75,10.75S167.818,304.819,167.818,304.819Z" fill="none" stroke="#263238" stroke-linecap="round" stroke-linejoin="round" stroke-width="1"/>
      </g>
      <g id="Group_65" data-name="Group 65">
        <path id="Path_109" data-name="Path 109" d="M240.936,249.217l-7.618,42.852,55,.25,8.181-40.635a2.524,2.524,0,0,0-2.4-3.021l-50.6-1.528A2.525,2.525,0,0,0,240.936,249.217Z" fill="#fff" stroke="#263238" stroke-linecap="round" stroke-linejoin="round" stroke-width="1"/>
        <g id="Group_64" data-name="Group 64">
          <path id="Path_110" data-name="Path 110" d="M233.318,292.069l-26.781,18.941,61.25-1.75,20.531-16.941Z" fill="#fff"/>
          <g id="Group_63" data-name="Group 63" clip-path="url(#clip-path-5)">
            <path id="Path_111" data-name="Path 111" d="M233.318,292.069l-26.781,18.941,61.25-1.75,20.531-16.941Z" fill="#0f4c81"/>
            <path id="Path_112" data-name="Path 112" d="M233.318,292.069l-26.781,18.941,61.25-1.75,20.531-16.941Z" fill="#fff" opacity="0.5"/>
          </g>
          <path id="Path_114" data-name="Path 114" d="M233.318,292.069l-26.781,18.941,61.25-1.75,20.531-16.941Z" fill="none" stroke="#263238" stroke-linecap="round" stroke-linejoin="round" stroke-width="1"/>
        </g>
      </g>
      <g id="Group_67" data-name="Group 67">
        <path id="Path_115" data-name="Path 115" d="M253.568,310.819s22-19.25,43.75-25.75,26.25-5.5,25.75,4.25-11,60.75-18,73.75-15.75,36.75-15.5,41.25,8.75,17.75,16.25,22.5,6.75,10.5,2,11.5-10.25,2.75-26.5-7.75-23-25.5-22-29.25,11.5-8.75,15.75-16.25,11.25-35.5,11.75-48.25a75.758,75.758,0,0,1,5-23.5s-27.5,5-35.5,10Z" fill="#fff"/>
        <g id="Group_66" data-name="Group 66" clip-path="url(#clip-path-6)">
          <path id="Path_116" data-name="Path 116" d="M253.568,310.819s22-19.25,43.75-25.75,26.25-5.5,25.75,4.25-11,60.75-18,73.75-15.75,36.75-15.5,41.25,8.75,17.75,16.25,22.5,6.75,10.5,2,11.5-10.25,2.75-26.5-7.75-23-25.5-22-29.25,11.5-8.75,15.75-16.25,11.25-35.5,11.75-48.25a75.758,75.758,0,0,1,5-23.5s-27.5,5-35.5,10Z" fill="#0f4c81"/>
          <path id="Path_117" data-name="Path 117" d="M253.568,310.819s22-19.25,43.75-25.75,26.25-5.5,25.75,4.25-11,60.75-18,73.75-15.75,36.75-15.5,41.25,8.75,17.75,16.25,22.5,6.75,10.5,2,11.5-10.25,2.75-26.5-7.75-23-25.5-22-29.25,11.5-8.75,15.75-16.25,11.25-35.5,11.75-48.25a75.758,75.758,0,0,1,5-23.5s-27.5,5-35.5,10Z" fill="#fff" opacity="0.5"/>
        </g>
        <path id="Path_119" data-name="Path 119" d="M253.568,310.819s22-19.25,43.75-25.75,26.25-5.5,25.75,4.25-11,60.75-18,73.75-15.75,36.75-15.5,41.25,8.75,17.75,16.25,22.5,6.75,10.5,2,11.5-10.25,2.75-26.5-7.75-23-25.5-22-29.25,11.5-8.75,15.75-16.25,11.25-35.5,11.75-48.25a75.758,75.758,0,0,1,5-23.5s-27.5,5-35.5,10Z" fill="none" stroke="#263238" stroke-linecap="round" stroke-linejoin="round" stroke-width="1"/>
      </g>
      <path id="Path_120" data-name="Path 120" d="M275.068,385.069a18.85,18.85,0,0,1-1.062,1.64,25.692,25.692,0,0,1,14.062,5.86,45.736,45.736,0,0,1,3.419,3.306,219.624,219.624,0,0,1,13.581-32.806c7-13,17.5-64,18-73.75s-4-10.75-25.75-4.25-43.75,25.75-43.75,25.75l2.75,12.5c8-5,35.5-10,35.5-10a75.758,75.758,0,0,0-5,23.5C286.318,349.569,279.318,377.569,275.068,385.069Z" fill="#fff" stroke="#263238" stroke-linecap="round" stroke-linejoin="round" stroke-width="1"/>
      <g id="Group_69" data-name="Group 69">
        <path id="Path_121" data-name="Path 121" d="M275.068,385.069a18.85,18.85,0,0,1-1.062,1.64,25.692,25.692,0,0,1,14.062,5.86,45.736,45.736,0,0,1,3.419,3.306c4.792-6.432,10.18-26.749,16.262-35.106,15.715-21.59,14.819-61.7,15.319-71.45s-4-10.75-25.75-4.25-43.75,25.75-43.75,25.75l2.75,12.5c8-5,35.5-10,35.5-10a75.758,75.758,0,0,0-5,23.5C286.318,349.569,279.318,377.569,275.068,385.069Z" fill="#263238"/>
        <g id="Group_68" data-name="Group 68" clip-path="url(#clip-path-7)">
          <path id="Path_122" data-name="Path 122" d="M275.068,385.069a18.85,18.85,0,0,1-1.062,1.64,25.692,25.692,0,0,1,14.062,5.86,45.736,45.736,0,0,1,3.419,3.306c4.792-6.432,10.18-26.749,16.262-35.106,15.715-21.59,14.819-61.7,15.319-71.45s-4-10.75-25.75-4.25-43.75,25.75-43.75,25.75l2.75,12.5c8-5,35.5-10,35.5-10a75.758,75.758,0,0,0-5,23.5C286.318,349.569,279.318,377.569,275.068,385.069Z" fill="#fff" opacity="0.53"/>
          <path id="Path_123" data-name="Path 123" d="M312.5,288c-.395-3.55-39.063,12.815-55.37,19.882-2.263,1.8-3.562,2.937-3.562,2.937l2.75,12.5c8-5,35.5-10,35.5-10a75.758,75.758,0,0,0-5,23.5c-.5,12.75-7.5,40.75-11.75,48.25a18.683,18.683,0,0,1-1.062,1.639,28.493,28.493,0,0,1,7.975,2.068c6.056-12.8,12.473-27.648,15.519-39.276C303,328.5,313,292.5,312.5,288Z" opacity="0.14"/>
          <path id="Path_124" data-name="Path 124" d="M291.818,313.319s7.5-15.25,14-21.5" fill="none" stroke="#263238" stroke-linecap="round" stroke-linejoin="round" stroke-width="1"/>
        </g>
        <path id="Path_126" data-name="Path 126" d="M275.068,385.069a18.85,18.85,0,0,1-1.062,1.64,25.692,25.692,0,0,1,14.062,5.86,45.736,45.736,0,0,1,3.419,3.306c4.792-6.432,10.18-26.749,16.262-35.106,15.715-21.59,14.819-61.7,15.319-71.45s-4-10.75-25.75-4.25-43.75,25.75-43.75,25.75l2.75,12.5c8-5,35.5-10,35.5-10a75.758,75.758,0,0,0-5,23.5C286.318,349.569,279.318,377.569,275.068,385.069Z" fill="none" stroke="#263238" stroke-linecap="round" stroke-linejoin="round" stroke-width="1"/>
      </g>
      <path id="Path_127" data-name="Path 127" d="M220.608,330.952a85.989,85.989,0,0,0,23.651-4.456c11.311-4.113-9.255-11.653-17.138-7.54A11.714,11.714,0,0,0,220.608,330.952Z" fill="#263238" stroke="#263238" stroke-linecap="round" stroke-linejoin="round" stroke-width="1"/>
      <g id="Group_71" data-name="Group 71">
        <path id="Path_128" data-name="Path 128" d="M188.068,314.819s-8,4.5-10.75,9.5,9.083,13.334,21.583,12.834,35.417-14.084,35.417-14.084.25,22,4.5,30,23.75,27.5,31.5,32.5,33.75,23.75,37.75,26.75,11.5,8.5,13.25,8.75,20-22,24.25-29.5,8-23.25,6.5-26.75-4.5-.5-7.5,2-30.5,20.75-33,22a27.437,27.437,0,0,1-4.25,1.75s-22.5-21.5-34.5-38-13-37.75-17.5-45.75-11-11.5-20.75-10.5S204.568,302.569,188.068,314.819Z" fill="#fff"/>
        <g id="Group_70" data-name="Group 70" clip-path="url(#clip-path-8)">
          <path id="Path_129" data-name="Path 129" d="M293.853,402.021c6.676,4.784,12.491,9.005,14.215,10.3,4,3,11.5,8.5,13.25,8.75.621.089,3.32-2.659,6.731-6.568l-28.63-18.417Z" fill="#0f4c81"/>
          <path id="Path_130" data-name="Path 130" d="M293.853,402.021c6.676,4.784,12.491,9.005,14.215,10.3,4,3,11.5,8.5,13.25,8.75.621.089,3.32-2.659,6.731-6.568l-28.63-18.417Z" fill="#fff" opacity="0.5"/>
        </g>
        <path id="Path_132" data-name="Path 132" d="M188.068,314.819s-8,4.5-10.75,9.5,9.083,13.334,21.583,12.834,35.417-14.084,35.417-14.084.25,22,4.5,30,23.75,27.5,31.5,32.5,33.75,23.75,37.75,26.75,11.5,8.5,13.25,8.75,20-22,24.25-29.5,8-23.25,6.5-26.75-4.5-.5-7.5,2-30.5,20.75-33,22a27.437,27.437,0,0,1-4.25,1.75s-22.5-21.5-34.5-38-13-37.75-17.5-45.75-11-11.5-20.75-10.5S204.568,302.569,188.068,314.819Z" fill="none" stroke="#263238" stroke-linecap="round" stroke-linejoin="round" stroke-width="1"/>
      </g>
      <g id="Group_73" data-name="Group 73">
        <path id="Path_133" data-name="Path 133" d="M305.766,389.066c-5.287-5.157-25.12-31.767-32.947-47.065-11.47-22.418-12.7-30.059-17.205-38.059s-11.3-8.623-21.046-7.623-27.195,2.81-48.6,14.95c0,0-8.984,4.884-11.734,9.884s7.261,17.59,24.666,16c12.458-1.139,35.417-14.084,35.417-14.084s.25,22,4.5,30,23.75,27.5,31.5,32.5c4.915,3.171,17.165,11.869,26.493,18.576C299.152,395.772,303.284,391.185,305.766,389.066Z" fill="#263238"/>
        <g id="Group_72" data-name="Group 72" clip-path="url(#clip-path-9)">
          <path id="Path_134" data-name="Path 134" d="M305.766,389.066c-5.287-5.157-25.12-31.767-32.947-47.065-11.47-22.418-12.7-30.059-17.205-38.059s-11.3-8.623-21.046-7.623-27.195,2.81-48.6,14.95c0,0-8.984,4.884-11.734,9.884s7.261,17.59,24.666,16c12.458-1.139,35.417-14.084,35.417-14.084s.25,22,4.5,30,23.75,27.5,31.5,32.5c4.915,3.171,17.165,11.869,26.493,18.576C299.152,395.772,303.284,391.185,305.766,389.066Z" fill="#fff" opacity="0.53"/>
          <path id="Path_135" data-name="Path 135" d="M255.5,353.5c-7.5-19-3-57-24-52-15.3,3.644-43.346,16.578-57.438,23.329,1.664,5.738,10.865,13.6,24.839,12.324,12.458-1.139,35.417-14.084,35.417-14.084s.25,22,4.5,30,23.75,27.5,31.5,32.5c4.915,3.171,17.165,11.869,26.493,18.576a35.452,35.452,0,0,1,3.492-8.378C281.683,382.013,259.686,364.106,255.5,353.5Z" opacity="0.14"/>
          <line id="Line_4" data-name="Line 4" x1="0.75" y1="13" transform="translate(233.568 310.069)" fill="none" stroke="#263238" stroke-linecap="round" stroke-linejoin="round" stroke-width="1"/>
        </g>
        <path id="Path_137" data-name="Path 137" d="M305.766,389.066c-5.287-5.157-25.12-31.767-32.947-47.065-11.47-22.418-12.7-30.059-17.205-38.059s-11.3-8.623-21.046-7.623-27.195,2.81-48.6,14.95c0,0-8.984,4.884-11.734,9.884s7.261,17.59,24.666,16c12.458-1.139,35.417-14.084,35.417-14.084s.25,22,4.5,30,23.75,27.5,31.5,32.5c4.915,3.171,17.165,11.869,26.493,18.576C299.152,395.772,303.284,391.185,305.766,389.066Z" fill="none" stroke="#263238" stroke-linecap="round" stroke-linejoin="round" stroke-width="1"/>
      </g>
      <path id="Path_138" data-name="Path 138" d="M308.068,412.319c4,3,11.5,8.5,13.25,8.75s20-22,24.25-29.5,8-23.25,6.5-26.75-4.5-.5-7.5,2-30.5,20.75-33,22c-.655.328-1.254.6-1.788.83-.724,1.368-1.6,3.494-.962,4.92,1,2.25,5.25,5.25,5.25,5.25l-7.563,11.346C307.178,411.658,307.713,412.053,308.068,412.319Z" fill="#263238" stroke="#263238" stroke-linecap="round" stroke-linejoin="round" stroke-width="1"/>
      <g id="Group_75" data-name="Group 75">
        <path id="Path_139" data-name="Path 139" d="M345.568,391.569c4.25-7.5,8-23.25,6.5-26.75-.869-2.027-2.243-1.868-3.827-.893,1.052,4.677-.01,13.688-5.173,23.393-4.607,8.661-18.847,23.966-26.022,31.421a16.754,16.754,0,0,0,4.272,2.329C323.068,421.319,341.318,399.069,345.568,391.569Z" fill="#fff"/>
        <g id="Group_74" data-name="Group 74" clip-path="url(#clip-path-10)">
          <path id="Path_140" data-name="Path 140" d="M321.574,421a1.9,1.9,0,0,0,.213-.117c.023-.015.044-.026.068-.042.1-.067.213-.15.335-.245l.118-.1c.092-.075.189-.158.291-.247.054-.046.107-.092.163-.143.123-.111.253-.231.388-.358.078-.074.16-.153.242-.233.107-.1.215-.209.328-.321q.139-.137.283-.284l.276-.282c.229-.236.467-.484.715-.747l.114-.12c.145-.155.3-.317.447-.481l.176-.191c.523-.569,1.077-1.185,1.656-1.841l.046-.051q.3-.344.613-.7l0,0-4.365-2.808c-2.489,2.7-4.8,5.135-6.638,7.047h0q.347.228.678.441l.093.059c.211.135.419.266.618.39l.012.007c.342.212.659.4.96.572.094.053.191.109.28.158s.188.1.28.15c.11.057.217.113.318.163.076.037.148.071.219.1.109.05.209.092.3.13.05.019.1.042.15.058a2.038,2.038,0,0,0,.359.1.418.418,0,0,0,.189-.037C321.528,421.025,321.551,421.014,321.574,421Z" fill="#0f4c81"/>
          <path id="Path_141" data-name="Path 141" d="M321.574,421a1.9,1.9,0,0,0,.213-.117c.023-.015.044-.026.068-.042.1-.067.213-.15.335-.245l.118-.1c.092-.075.189-.158.291-.247.054-.046.107-.092.163-.143.123-.111.253-.231.388-.358.078-.074.16-.153.242-.233.107-.1.215-.209.328-.321q.139-.137.283-.284l.276-.282c.229-.236.467-.484.715-.747l.114-.12c.145-.155.3-.317.447-.481l.176-.191c.523-.569,1.077-1.185,1.656-1.841l.046-.051q.3-.344.613-.7l0,0-4.365-2.808c-2.489,2.7-4.8,5.135-6.638,7.047h0q.347.228.678.441l.093.059c.211.135.419.266.618.39l.012.007c.342.212.659.4.96.572.094.053.191.109.28.158s.188.1.28.15c.11.057.217.113.318.163.076.037.148.071.219.1.109.05.209.092.3.13.05.019.1.042.15.058a2.038,2.038,0,0,0,.359.1.418.418,0,0,0,.189-.037C321.528,421.025,321.551,421.014,321.574,421Z" fill="#fff" opacity="0.5"/>
        </g>
        <path id="Path_143" data-name="Path 143" d="M345.568,391.569c4.25-7.5,8-23.25,6.5-26.75-.869-2.027-2.243-1.868-3.827-.893,1.052,4.677-.01,13.688-5.173,23.393-4.607,8.661-18.847,23.966-26.022,31.421a16.754,16.754,0,0,0,4.272,2.329C323.068,421.319,341.318,399.069,345.568,391.569Z" fill="none" stroke="#263238" stroke-linecap="round" stroke-linejoin="round" stroke-width="1"/>
      </g>
      <path id="Path_144" data-name="Path 144" d="M305.818,426.819c-7.5-4.75-16-18-16.25-22.5a7.753,7.753,0,0,1,.117-1.474,7.215,7.215,0,0,0-4.117,1.474,95.58,95.58,0,0,0-9.75-7.75,20.357,20.357,0,0,0-8.968-2.685c-3.631,2.981-6.988,5.4-7.532,7.435-1,3.75,5.75,18.75,22,29.25s21.75,8.75,26.5,7.75S313.318,431.569,305.818,426.819Z" fill="#263238" stroke="#263238" stroke-linecap="round" stroke-linejoin="round" stroke-width="1"/>
      <path id="Path_145" data-name="Path 145" d="M257.818,401.819" fill="#fff" stroke="#263238" stroke-linecap="round" stroke-linejoin="round" stroke-width="1"/>
      <g id="Group_77" data-name="Group 77">
        <path id="Path_146" data-name="Path 146" d="M305.818,426.819a32.957,32.957,0,0,1-6.663-5.994c-5.16-2.191-12.044-5.037-18.087-8.756-6.5-4-5-6.5-8.75-10.25-2.877-2.877-8.539-3.251-11.024-3.27a6.829,6.829,0,0,0-1.976,2.77c-1,3.75,5.75,18.75,22,29.25s21.75,8.75,26.5,7.75S313.318,431.569,305.818,426.819Z" fill="#fff"/>
        <g id="Group_76" data-name="Group 76" clip-path="url(#clip-path-11)">
          <path id="Path_147" data-name="Path 147" d="M305.818,426.819a32.957,32.957,0,0,1-6.663-5.994c-5.16-2.191-12.044-5.037-18.087-8.756-6.5-4-5-6.5-8.75-10.25-2.877-2.877-8.539-3.251-11.024-3.27a6.829,6.829,0,0,0-1.976,2.77c-1,3.75,5.75,18.75,22,29.25s21.75,8.75,26.5,7.75S313.318,431.569,305.818,426.819Z" fill="#0f4c81"/>
          <path id="Path_148" data-name="Path 148" d="M305.818,426.819a32.957,32.957,0,0,1-6.663-5.994c-5.16-2.191-12.044-5.037-18.087-8.756-6.5-4-5-6.5-8.75-10.25-2.877-2.877-8.539-3.251-11.024-3.27a6.829,6.829,0,0,0-1.976,2.77c-1,3.75,5.75,18.75,22,29.25s21.75,8.75,26.5,7.75S313.318,431.569,305.818,426.819Z" fill="#fff" opacity="0.5"/>
        </g>
        <path id="Path_150" data-name="Path 150" d="M305.818,426.819a32.957,32.957,0,0,1-6.663-5.994c-5.16-2.191-12.044-5.037-18.087-8.756-6.5-4-5-6.5-8.75-10.25-2.877-2.877-8.539-3.251-11.024-3.27a6.829,6.829,0,0,0-1.976,2.77c-1,3.75,5.75,18.75,22,29.25s21.75,8.75,26.5,7.75S313.318,431.569,305.818,426.819Z" fill="none" stroke="#263238" stroke-linecap="round" stroke-linejoin="round" stroke-width="1"/>
      </g>
      <g id="Group_79" data-name="Group 79">
        <path id="Path_151" data-name="Path 151" d="M307.068,428.569c-6.5-3.75-19.75-6.25-28.25-12s-6.25-10.75-12.5-14.75a6.37,6.37,0,0,0-7.018-.4c-.868,3.9,5.9,18.736,22.018,29.151,16.25,10.5,21.75,8.75,26.5,7.75,3.157-.664,4.529-3.43,2.9-6.6A13.746,13.746,0,0,0,307.068,428.569Z" fill="#263238"/>
        <g id="Group_78" data-name="Group 78" clip-path="url(#clip-path-12)">
          <path id="Path_152" data-name="Path 152" d="M307.068,428.569c-6.5-3.75-19.75-6.25-28.25-12s-6.25-10.75-12.5-14.75a6.37,6.37,0,0,0-7.018-.4c-.868,3.9,5.9,18.736,22.018,29.151,16.25,10.5,21.75,8.75,26.5,7.75,3.157-.664,4.529-3.43,2.9-6.6A13.746,13.746,0,0,0,307.068,428.569Z" fill="#fff" opacity="0.53"/>
        </g>
        <path id="Path_154" data-name="Path 154" d="M307.068,428.569c-6.5-3.75-19.75-6.25-28.25-12s-6.25-10.75-12.5-14.75a6.37,6.37,0,0,0-7.018-.4c-.868,3.9,5.9,18.736,22.018,29.151,16.25,10.5,21.75,8.75,26.5,7.75,3.157-.664,4.529-3.43,2.9-6.6A13.746,13.746,0,0,0,307.068,428.569Z" fill="none" stroke="#263238" stroke-linecap="round" stroke-linejoin="round" stroke-width="1"/>
      </g>
      <g id="Group_81" data-name="Group 81">
        <path id="Path_155" data-name="Path 155" d="M182.491,380.749s4.8-5.827,5.484-1.371-.343,12.682-3.771,15.767-5.141-1.714-5.141-1.714l2.056-2.742s1.714,3.428,3.085-2.057-2.742-4.8-2.742-4.8Z" fill="#fff" stroke="#263238" stroke-linecap="round" stroke-linejoin="round" stroke-width="1"/>
        <path id="Path_156" data-name="Path 156" d="M178.817,402.685c-2.84,2.1-12.092,2.1-14.932,0-6.01-4.449-4.977-25.945-4.977-25.945h24.864S184.827,398.236,178.817,402.685Z" fill="#fff" stroke="#263238" stroke-linecap="round" stroke-linejoin="round" stroke-width="1"/>
        <g id="Group_80" data-name="Group 80">
          <path id="Path_157" data-name="Path 157" d="M161.61,372.523c0-2.707,2.506-2.707,2.506-5.414s-2.506-2.705-2.506-5.411,2.506-2.707,2.506-5.415-2.506-2.71-2.506-5.419,2.506-2.71,2.506-5.419" fill="none" stroke="#263238" stroke-linecap="round" stroke-linejoin="round" stroke-width="1"/>
          <path id="Path_158" data-name="Path 158" d="M170.2,372.523c0-2.055,2.505-2.055,2.505-4.11s-2.505-2.055-2.505-4.11,2.505-2.056,2.505-4.113-2.505-2.058-2.505-4.116,2.505-2.059,2.505-4.117" fill="none" stroke="#263238" stroke-linecap="round" stroke-linejoin="round" stroke-width="1"/>
          <path id="Path_159" data-name="Path 159" d="M179.648,372.523c0-2.707,2.505-2.707,2.505-5.414s-2.505-2.705-2.505-5.411,2.505-2.707,2.505-5.415-2.505-2.71-2.505-5.419,2.505-2.71,2.505-5.419" fill="none" stroke="#263238" stroke-linecap="round" stroke-linejoin="round" stroke-width="1"/>
        </g>
        <path id="Path_160" data-name="Path 160" d="M183.772,376.74c0,.625-5.566,1.133-12.432,1.133s-12.432-.508-12.432-1.133,5.566-1.132,12.432-1.132S183.772,376.115,183.772,376.74Z" fill="#fff" stroke="#263238" stroke-linecap="round" stroke-linejoin="round" stroke-width="1"/>
      </g>
      <g id="Group_92" data-name="Group 92">
        <g id="Group_83" data-name="Group 83">
          <path id="Path_161" data-name="Path 161" d="M206.721,222.024s1.165,12.63,1.655,16.614,1.609,15.449,2.759,19.24,7.414,10.383,8.021,8.858,3.7-11.821,2.463-17.944-1.618-11.445-.845-12.977,3.54-3.308,3.54-3.308a98.487,98.487,0,0,1-9.389-5.469C210.47,224.045,207.335,220.665,206.721,222.024Z" fill="#fff"/>
          <g id="Group_82" data-name="Group 82" clip-path="url(#clip-path-13)">
            <path id="Path_162" data-name="Path 162" d="M222.768,233.093l-1.022-1.947c-1.836-1.006-4.4-2.478-6.821-4.108-4.455-2.993-7.59-6.373-8.2-5.014,0,0,1.165,12.63,1.655,16.614s1.609,15.449,2.759,19.24a12.634,12.634,0,0,0,1.6,3.118c-1.21-7.541.1-21.153.1-21.153Z" fill="#0f4c81"/>
            <path id="Path_163" data-name="Path 163" d="M222.768,233.093l-1.022-1.947c-1.836-1.006-4.4-2.478-6.821-4.108-4.455-2.993-7.59-6.373-8.2-5.014,0,0,1.165,12.63,1.655,16.614s1.609,15.449,2.759,19.24a12.634,12.634,0,0,0,1.6,3.118c-1.21-7.541.1-21.153.1-21.153Z" fill="#fff" opacity="0.5"/>
          </g>
          <path id="Path_165" data-name="Path 165" d="M206.721,222.024s1.165,12.63,1.655,16.614,1.609,15.449,2.759,19.24,7.414,10.383,8.021,8.858,3.7-11.821,2.463-17.944-1.618-11.445-.845-12.977,3.54-3.308,3.54-3.308a98.487,98.487,0,0,1-9.389-5.469C210.47,224.045,207.335,220.665,206.721,222.024Z" fill="none" stroke="#263238" stroke-linecap="round" stroke-linejoin="round" stroke-width="1"/>
        </g>
        <g id="Group_91" data-name="Group 91">
          <g id="Group_86" data-name="Group 86">
            <g id="Group_85" data-name="Group 85">
              <path id="Path_166" data-name="Path 166" d="M206.255,223.827s7.2,6.028,12.728,8.2,14.01,2.061,15.2-.816-2.1-25.6-4.942-31.579-5.9-6.079-10.921-6.534-15.091,3.64-16.859,8.5.245,11.742,1.711,15.819A30.109,30.109,0,0,0,206.255,223.827Z" fill="#fff"/>
              <g id="Group_84" data-name="Group 84" clip-path="url(#clip-path-14)">
                <path id="Path_167" data-name="Path 167" d="M219.194,223.562c-2.552-7.584-3.177-19.458-3.177-22.635,0-2.451,6.38-5.137,9.3-6.237-1.909-1.182-4.129-1.329-6.991-1.588-5.024-.456-15.091,3.64-16.859,8.5s.245,11.742,1.711,15.819a30.109,30.109,0,0,0,3.081,6.408s7.2,6.028,12.728,8.2a22.959,22.959,0,0,0,11.943,1.153C227.021,231.691,220.894,228.614,219.194,223.562Z" fill="#0f4c81"/>
                <path id="Path_168" data-name="Path 168" d="M219.194,223.562c-2.552-7.584-3.177-19.458-3.177-22.635,0-2.451,6.38-5.137,9.3-6.237-1.909-1.182-4.129-1.329-6.991-1.588-5.024-.456-15.091,3.64-16.859,8.5s.245,11.742,1.711,15.819a30.109,30.109,0,0,0,3.081,6.408s7.2,6.028,12.728,8.2a22.959,22.959,0,0,0,11.943,1.153C227.021,231.691,220.894,228.614,219.194,223.562Z" fill="#fff" opacity="0.5"/>
              </g>
              <path id="Path_170" data-name="Path 170" d="M206.255,223.827s7.2,6.028,12.728,8.2,14.01,2.061,15.2-.816-2.1-25.6-4.942-31.579-5.9-6.079-10.921-6.534-15.091,3.64-16.859,8.5.245,11.742,1.711,15.819A30.109,30.109,0,0,0,206.255,223.827Z" fill="none" stroke="#263238" stroke-linecap="round" stroke-linejoin="round" stroke-width="1"/>
            </g>
            <path id="Path_171" data-name="Path 171" d="M229.784,208.973c.113,2.88-1.692,5.289-4.032,5.382s-4.33-2.169-4.443-5.049,1.692-5.29,4.032-5.382S229.67,206.092,229.784,208.973Z" fill="none" stroke="#263238" stroke-linecap="round" stroke-linejoin="round" stroke-width="1"/>
            <path id="Path_172" data-name="Path 172" d="M235.443,207.879c.113,2.881-.816,5.256-2.076,5.305s-2.374-2.245-2.487-5.125.816-5.255,2.076-5.305S235.33,205,235.443,207.879Z" fill="none" stroke="#263238" stroke-linecap="round" stroke-linejoin="round" stroke-width="1"/>
            <path id="Path_173" data-name="Path 173" d="M230.077,207.936s8.259,1.571,7.467,3.561-6.382,4.14-6.382,4.14" fill="#fff" stroke="#263238" stroke-linecap="round" stroke-linejoin="round" stroke-width="1"/>
            <path id="Path_174" data-name="Path 174" d="M229.571,207.017s.116-1.021,1.394-.367" fill="none" stroke="#263238" stroke-linecap="round" stroke-linejoin="round" stroke-width="1"/>
            <line id="Line_5" data-name="Line 5" x1="15.02" y2="5.91" transform="translate(206.056 209.776)" fill="none" stroke="#263238" stroke-linecap="round" stroke-linejoin="round" stroke-width="1"/>
            <path id="Path_175" data-name="Path 175" d="M221.276,204.919a3.809,3.809,0,0,1,3.743-2.259" fill="none" stroke="#263238" stroke-linecap="round" stroke-linejoin="round" stroke-width="2"/>
            <line id="Line_6" data-name="Line 6" x1="2.312" y2="0.873" transform="translate(228.967 202.726)" fill="none" stroke="#263238" stroke-linecap="round" stroke-linejoin="round" stroke-width="2"/>
            <path id="Path_176" data-name="Path 176" d="M224.136,219.5s2.971-.784,4.709.982" fill="none" stroke="#263238" stroke-linecap="round" stroke-linejoin="round" stroke-width="1"/>
            <path id="Path_177" data-name="Path 177" d="M226.075,209.522c.137,1-.048,1.857-.412,1.907s-.772-.723-.909-1.726.047-1.857.412-1.907S225.938,208.519,226.075,209.522Z" fill="#263238"/>
          </g>
          <g id="Group_88" data-name="Group 88">
            <path id="Path_178" data-name="Path 178" d="M207.46,215.727s-1.009,2,1.824,2.1,4.738-1.275,3.365-2.962-3.4-3.348-1.308-5.607,6.147-4.159,3.872-6.681-10.673-.233-8.577-2.274,11.8-4.164,16.168-3.9,12.5-3.1,14.285-7.526-.713-12.6-6.571-12.147-10.225,5.626-12.824,5.946-7.934-2.517-12.4.053-4.622,9.757-5.022,10.644-6.442,2.212-7.506,8.348A16.316,16.316,0,0,0,197,215.486c2.5,2.731,3.631,3.775,3.631,3.775Z" fill="#263238" stroke="#263238" stroke-linecap="round" stroke-linejoin="round" stroke-width="1"/>
            <g id="Group_87" data-name="Group 87">
              <path id="Path_179" data-name="Path 179" d="M194.736,204.651a4.735,4.735,0,0,0,.646,2.659" fill="none" stroke="#fff" stroke-linecap="round" stroke-linejoin="round" stroke-width="0.75"/>
              <path id="Path_180" data-name="Path 180" d="M220.233,188.821s-2.187-4.771,3.379-4.771,6.362,6.958.6,9.542-18.291,3.181-25.05,6.164a8.776,8.776,0,0,0-3.442,2.438" fill="none" stroke="#fff" stroke-linecap="round" stroke-linejoin="round" stroke-width="0.75"/>
              <path id="Path_181" data-name="Path 181" d="M210.165,205.761c-2,.715-4.591,1.716-7.229,2.941-5.566,2.584-4.373,5.169-4.373,5.169" fill="none" stroke="#fff" stroke-linecap="round" stroke-linejoin="round" stroke-width="0.75"/>
              <path id="Path_182" data-name="Path 182" d="M213.871,204.527s-.486.144-1.317.416" fill="none" stroke="#fff" stroke-linecap="round" stroke-linejoin="round" stroke-width="0.75"/>
            </g>
          </g>
          <g id="Group_90" data-name="Group 90">
            <path id="Path_183" data-name="Path 183" d="M208.415,217.866s-3.231-4.661-6.639-2.785-.753,8.517,1.3,10.83,6.016-1.978,6.408-3.081" fill="#fff"/>
            <g id="Group_89" data-name="Group 89" clip-path="url(#clip-path-15)">
              <path id="Path_184" data-name="Path 184" d="M208.415,217.866s-3.231-4.661-6.639-2.785-.753,8.517,1.3,10.83,6.016-1.978,6.408-3.081" fill="#0f4c81"/>
              <path id="Path_185" data-name="Path 185" d="M208.415,217.866s-3.231-4.661-6.639-2.785-.753,8.517,1.3,10.83,6.016-1.978,6.408-3.081" fill="#fff" opacity="0.5"/>
            </g>
            <path id="Path_187" data-name="Path 187" d="M208.415,217.866s-3.231-4.661-6.639-2.785-.753,8.517,1.3,10.83,6.016-1.978,6.408-3.081" fill="none" stroke="#263238" stroke-linecap="round" stroke-linejoin="round" stroke-width="1"/>
          </g>
        </g>
      </g>
    </g>
    <rect id="Rectangle_18" data-name="Rectangle 18" width="81.918" height="62.643" rx="5.12" transform="translate(90.819 213.615)" fill="#fff" stroke="#263238" stroke-linecap="round" stroke-linejoin="round" stroke-width="1"/>
    <path id="Path_188" data-name="Path 188" d="M171.177,258.679l48,12.5-48-23.5" fill="#fff" stroke="#263238" stroke-linecap="round" stroke-linejoin="round" stroke-width="1"/>
    <rect id="Rectangle_19" data-name="Rectangle 19" width="19.275" height="50.596" transform="translate(97.445 219.639)" fill="#0f4c81" stroke="#263238" stroke-linecap="round" stroke-linejoin="round" stroke-width="1"/>
    <rect id="Rectangle_20" data-name="Rectangle 20" width="2.409" height="50.596" transform="translate(166.076 219.639)" fill="#0f4c81" stroke="#263238" stroke-linecap="round" stroke-linejoin="round" stroke-width="1"/>
    <rect id="Rectangle_21" data-name="Rectangle 21" width="2.409" height="4.324" transform="translate(166.076 242.775)" fill="#263238" stroke="#263238" stroke-linecap="round" stroke-linejoin="round" stroke-width="1"/>
    <line id="Line_7" data-name="Line 7" x2="37.947" transform="translate(122.743 220.843)" fill="#fff" stroke="#263238" stroke-linecap="round" stroke-linejoin="round" stroke-width="1"/>
    <line id="Line_8" data-name="Line 8" x2="37.947" transform="translate(122.743 226.264)" fill="#fff" stroke="#263238" stroke-linecap="round" stroke-linejoin="round" stroke-width="1"/>
    <line id="Line_9" data-name="Line 9" x2="37.947" transform="translate(122.743 250.358)" fill="#fff" stroke="#263238" stroke-linecap="round" stroke-linejoin="round" stroke-width="1"/>
    <line id="Line_10" data-name="Line 10" x2="37.947" transform="translate(122.743 255.176)" fill="#fff" stroke="#263238" stroke-linecap="round" stroke-linejoin="round" stroke-width="1"/>
    <line id="Line_11" data-name="Line 11" x2="37.947" transform="translate(122.743 259.995)" fill="#fff" stroke="#263238" stroke-linecap="round" stroke-linejoin="round" stroke-width="1"/>
    <line id="Line_12" data-name="Line 12" x2="37.947" transform="translate(122.743 269.995)" fill="#fff" stroke="#263238" stroke-linecap="round" stroke-linejoin="round" stroke-width="1"/>
    <line id="Line_13" data-name="Line 13" y1="50.596" x2="19.275" transform="translate(97.445 219.639)" fill="none" stroke="#263238" stroke-linecap="round" stroke-linejoin="round" stroke-width="1"/>
    <g id="Group_96" data-name="Group 96">
      <g id="Group_94" data-name="Group 94">
        <ellipse id="Ellipse_3" data-name="Ellipse 3" cx="16.726" cy="7.504" rx="16.726" ry="7.504" transform="translate(371.139 395.255)" fill="#0f4c81"/>
        <ellipse id="Ellipse_4" data-name="Ellipse 4" cx="16.726" cy="7.504" rx="16.726" ry="7.504" transform="translate(371.139 395.255)" fill="#fff" opacity="0.5"/>
      </g>
      <g id="Group_95" data-name="Group 95">
        <path id="Path_189" data-name="Path 189" d="M368.3,291.777c1.79.782,6.169.684,6.173.683.045,0-.941-2.866-1.024-3.04-.961-2.01-4-5.328-6.472-4.994a2.952,2.952,0,0,0-2.369,3.7C365.015,289.839,366.772,291.111,368.3,291.777Z" fill="#263238"/>
        <path id="Path_190" data-name="Path 190" d="M425.656,276.872c-2.48-.267-5.427,3.132-6.334,5.168-.078.176-.987,3.067-.941,3.066h.053c-.47.533-.967,1.11-1.5,1.751-.97,1.192-2.056,2.547-3.137,4.1a52.458,52.458,0,0,0-3.253,5.183,38.491,38.491,0,0,0-2.779,6.255c-.009.026-.014.053-.023.079.013-.73-.019-2.775-.039-2.932-.287-2.209-2.138-6.309-4.592-6.763a2.953,2.953,0,0,0-3.4,2.777c-.143,1.755,1.129,3.512,2.37,4.62,1.4,1.25,5.284,2.461,5.594,2.556a52.136,52.136,0,0,0-1.641,6.777c-.239,1.335-.437,2.687-.619,4.044-.009-.632-.022-1.2-.032-1.276-.287-2.209-2.139-6.31-4.591-6.763a2.952,2.952,0,0,0-3.4,2.777c-.144,1.755,1.128,3.512,2.369,4.62,1.26,1.125,4.551,2.223,5.425,2.5-.064.521-.134,1.041-.2,1.563-.3,2.5-.587,5-.944,7.446-.126.862-.281,1.7-.433,2.549-.009-.561-.021-1.034-.03-1.106-.287-2.209-2.138-6.31-4.592-6.763a2.952,2.952,0,0,0-3.4,2.777c-.144,1.755,1.129,3.512,2.37,4.62,1.2,1.073,4.23,2.114,5.268,2.451-.182.86-.362,1.722-.578,2.547-.159.56-.274,1.11-.466,1.664s-.354,1.1-.529,1.64c-.375,1.03-.755,2.1-1.146,3.091-.266.694-.534,1.351-.8,2.014.135-.856.364-2.536.367-2.679a11.472,11.472,0,0,0-1.537-5.576,3.567,3.567,0,0,0-.041-.653,2.953,2.953,0,0,0-3.61-2.505c-2.411.642-3.94,4.874-4.054,7.1-.007.131.079,1.563.148,2.466-.121-.524-.233-1.035-.364-1.573-.253-1.066-.537-2.123-.838-3.261q-.246-.816-.5-1.649c-.155-.555-.389-1.12-.582-1.687-.477-1.3-1.024-2.6-1.6-3.9.933-.224,4.235-1.066,5.561-2.084s2.72-2.67,2.707-4.43a2.952,2.952,0,0,0-3.188-3.023c-2.48.27-4.633,4.22-5.083,6.4-.028.136-.175,1.738-.238,2.619-.355-.776-.7-1.552-1.089-2.325-1.108-2.232-2.3-4.458-3.479-6.683-.361-.681-.713-1.364-1.068-2.047.333-.076,4.28-.992,5.765-2.131,1.32-1.013,2.72-2.67,2.707-4.431a2.952,2.952,0,0,0-3.188-3.023c-2.48.27-4.633,4.221-5.083,6.4-.034.165-.242,2.47-.266,3.059-.781-1.5-1.546-3.01-2.239-4.525a52.026,52.026,0,0,1-2.435-6.288c.155-.035,4.279-.973,5.8-2.14,1.32-1.012,2.72-2.67,2.707-4.431a2.951,2.951,0,0,0-3.188-3.022c-2.481.269-4.633,4.22-5.083,6.4-.035.171-.258,2.651-.266,3.1-.038-.125-.092-.25-.129-.375a38.115,38.115,0,0,1-1.262-6.639c-.139-1.239-.2-2.431-.239-3.592.786-.1,4.373-.574,5.858-1.473,1.423-.862,3-2.355,3.178-4.107a2.952,2.952,0,0,0-2.837-3.354c-2.495-.005-5.068,3.686-5.755,5.8-.038.115-.288,1.329-.458,2.215-.007-.524-.026-1.065-.024-1.568,0-1.886.123-3.613.241-5.142.074-.869.159-1.653.245-2.386.722-.5,3.607-2.533,4.5-3.989.866-1.42,1.574-3.471.928-5.109a2.953,2.953,0,0,0-4.064-1.67c-2.216,1.146-2.8,5.607-2.433,7.8.032.189.869,3.1.907,3.077l.044-.03c-.1.7-.194,1.459-.283,2.286-.151,1.53-.309,3.259-.353,5.153a52.339,52.339,0,0,0,.146,6.117,38.471,38.471,0,0,0,1.133,6.75c.007.026.018.053.025.078-.393-.616-1.548-2.3-1.651-2.423-1.458-1.684-5.264-4.083-7.561-3.108a2.954,2.954,0,0,0-1.308,4.2c.849,1.543,2.88,2.306,4.526,2.546,1.857.27,5.765-.863,6.075-.954a52.441,52.441,0,0,0,2.37,6.558c.538,1.244,1.118,2.481,1.715,3.714-.356-.522-.679-.987-.731-1.047-1.457-1.685-5.264-4.083-7.56-3.108a2.952,2.952,0,0,0-1.308,4.2c.848,1.543,2.879,2.306,4.525,2.546,1.671.244,5.022-.656,5.906-.9.234.47.462.942.7,1.412,1.132,2.253,2.271,4.5,3.32,6.731.371.788.706,1.577,1.045,2.365-.317-.463-.588-.851-.635-.906-1.458-1.684-5.264-4.083-7.56-3.108a2.953,2.953,0,0,0-1.309,4.195c.849,1.543,2.879,2.306,4.526,2.546,1.594.232,4.695-.57,5.746-.862.322.818.647,1.636.923,2.443.176.555.384,1.078.529,1.645l.463,1.66c.256,1.066.527,2.164.75,3.21.161.726.3,1.422.443,2.122-.359-.788-1.1-2.316-1.171-2.437-1.185-1.886-4.585-4.833-7-4.218a2.954,2.954,0,0,0-1.928,3.948c.605,1.654,2.5,2.716,4.087,3.2,1.752.535,5.631.046,6.115-.019.233,1.159.448,2.289.633,3.358.654,3.7,1.057,6.815,1.308,8.992.045.386.083.732.117,1.057H384.39l2.414,47.1a6.733,6.733,0,0,0,6.724,6.388h0a6.732,6.732,0,0,0,6.724-6.388l2.414-47.1h-6.994c.051-.107.1-.207.155-.321.96-2,2.29-4.873,3.728-8.389.457-1.11.923-2.3,1.39-3.537.469.1,4.309.878,6.1.474,1.623-.366,3.589-1.285,4.315-2.889a2.952,2.952,0,0,0-1.629-4.08c-2.365-.794-5.974,1.891-7.3,3.684-.078.1-.8,1.347-1.237,2.138.188-.5.377-.991.564-1.513.377-1.029.724-2.066,1.1-3.182q.246-.816.494-1.651c.177-.547.294-1.148.445-1.727.321-1.351.581-2.735.813-4.135.9.328,4.12,1.448,5.787,1.331s3.742-.727,4.7-2.2a2.953,2.953,0,0,0-.992-4.28c-2.218-1.143-6.192.965-7.771,2.536-.1.1-1.105,1.353-1.645,2.053.133-.842.269-1.683.375-2.54.307-2.473.541-4.986.786-7.493.074-.767.157-1.531.238-2.3.319.121,4.116,1.534,5.984,1.4,1.66-.116,3.742-.726,4.7-2.2a2.953,2.953,0,0,0-.992-4.28c-2.218-1.143-6.193.965-7.771,2.536-.119.118-1.565,1.926-1.91,2.4.178-1.686.372-3.363.629-5.009a51.9,51.9,0,0,1,1.438-6.588c.149.056,4.105,1.549,6.018,1.415,1.659-.117,3.741-.726,4.7-2.2a2.952,2.952,0,0,0-.992-4.28c-2.217-1.144-6.192.964-7.771,2.536-.124.123-1.677,2.069-1.934,2.442.037-.126.061-.259.1-.384a38.087,38.087,0,0,1,2.61-6.234c.568-1.11,1.172-2.139,1.783-3.128.708.354,3.963,1.934,5.7,2,1.662.066,3.8-.311,4.916-1.672a2.952,2.952,0,0,0-.516-4.363c-2.079-1.381-6.261.278-8,1.667-.1.075-.973.949-1.6,1.6.283-.442.566-.9.845-1.321,1.043-1.572,2.1-2.947,3.038-4.156.541-.684,1.044-1.292,1.52-1.855.876-.016,4.406-.123,5.95-.848,1.505-.707,3.228-2.026,3.592-3.749A2.953,2.953,0,0,0,425.656,276.872Zm-27.463,66.64c-1.5,3.45-2.878,6.267-3.869,8.221-.2.394-.38.743-.546,1.064h-.166c-.049-.381-.1-.8-.168-1.267-.3-2.2-.778-5.328-1.519-9.054-.231-1.177-.5-2.431-.791-3.716a32.256,32.256,0,0,0,3.411-1.6,21.613,21.613,0,0,0,4.972,3.206C399.072,341.457,398.628,342.518,398.193,343.512Z" fill="#263238"/>
        <path id="Path_191" data-name="Path 191" d="M412.587,292.74c.038.025.8-2.91.823-3.1.307-2.207-.4-6.65-2.643-7.736a2.953,2.953,0,0,0-4.017,1.779c-.6,1.655.162,3.686,1.066,5.082C408.877,290.4,412.584,292.738,412.587,292.74Z" fill="#263238"/>
      </g>
    </g>
    <text id="DOCS" transform="translate(244.064 272.82)" fill="#0f4c81" font-size="15" font-family="Montserrat-SemiBold, Montserrat" font-weight="600"><tspan x="0" y="0">DOCS</tspan></text>
    <text id="PDF" transform="translate(126.832 244.338)" fill="#0f4c81" font-size="15" font-family="Montserrat-SemiBold, Montserrat" font-weight="600"><tspan x="0" y="0">PDF</tspan></text>
  </g>
</svg>
