<svg xmlns="http://www.w3.org/2000/svg" width="42.812" height="57.082" viewBox="0 0 42.812 57.082">
  <g id="Group_29" data-name="Group 29" transform="translate(-6084.696 840)">
    <path id="Path_45" data-name="Path 45" d="M6126.462-825.729l-13.226-13.225a3.567,3.567,0,0,0-2.522-1.045h-21.358a4.661,4.661,0,0,0-4.661,4.661v47.76a4.661,4.661,0,0,0,4.661,4.661h33.49a4.661,4.661,0,0,0,4.661-4.661v-35.628A3.569,3.569,0,0,0,6126.462-825.729Zm-11.441,1.784a3.568,3.568,0,0,1-3.568-3.568v-7.135l10.7,10.7Z" fill="#2d7e31"/>
    <text id="PDF" transform="translate(6091.255 -801.939)" fill="#fff" font-size="13" font-family="SegoeUI-Bold, Segoe UI" font-weight="700"><tspan x="0" y="0">PDF</tspan></text>
    <g id="Group_28" data-name="Group 28" transform="translate(6089.982 -831.785)">
      <path id="Path_46" data-name="Path 46" d="M6148.857-717.7c.105-.175.19-.308.267-.445q1.582-2.812,3.162-5.626c.155-.276.318-.533.68-.531s.524.262.678.536q2.741,4.88,5.486,9.758c.43.766.18,1.19-.7,1.19q-8.038,0-16.075,0c-.334,0-.643-.025-.815-.367s0-.584.184-.841q2.095-2.986,4.187-5.974c.455-.649.879-.651,1.33-.011C6147.773-719.246,6148.3-718.487,6148.857-717.7Zm8.761,3.607c-1.566-2.784-3.092-5.5-4.631-8.229a1.006,1.006,0,0,0-.11.119c-1.03,1.827-2.063,3.652-3.082,5.485a.441.441,0,0,0,.024.378,15.335,15.335,0,0,1,.872,1.284,1.723,1.723,0,0,0,1.876.986C6154.222-714.149,6155.884-714.091,6157.618-714.091Zm-14.26-.033h6.442l-3.222-4.6Z" transform="translate(-6141.472 726.856)" fill="#fff"/>
      <path id="Path_47" data-name="Path 47" d="M6186.446-749.85a1.922,1.922,0,0,1-1.929,1.918,1.92,1.92,0,0,1-1.9-1.909,1.92,1.92,0,0,1,1.928-1.917A1.92,1.92,0,0,1,6186.446-749.85Zm-1.918-.631a.641.641,0,0,0-.63.631.641.641,0,0,0,.661.64.642.642,0,0,0,.61-.651A.64.64,0,0,0,6184.528-750.482Z" transform="translate(-6178.79 751.759)" fill="#fff"/>
    </g>
  </g>
</svg>
