<svg xmlns="http://www.w3.org/2000/svg" width="30.238" height="42.691" viewBox="0 0 30.238 42.691">
  <path id="Path_65" data-name="Path 65" d="M4218.918-841.441c-1.488-1.277-2.861-2.458-4.236-3.635a2.466,2.466,0,0,0-3.64.025q-3.243,2.784-6.493,5.559a1.267,1.267,0,0,1-.148.084c-1.114-.952-2.243-1.916-3.372-2.882-1.1-.945-2.205-1.894-3.311-2.836a2.439,2.439,0,0,0-3.511.016c-1.387,1.193-2.775,2.385-4.278,3.676v-.738q0-17.243.009-34.486a10.7,10.7,0,0,0-1.169-5.183,2.072,2.072,0,0,1-.089-.257h25.054a4.841,4.841,0,0,1,5.184,5.154q0,17.413,0,34.826Zm-14.5-11.665c2.359,0,4.718,0,7.076,0a2.4,2.4,0,0,0,2.573-2.416,2.4,2.4,0,0,0-2.572-2.421q-7.077-.013-14.153.009a3.091,3.091,0,0,0-1.252.276,2.36,2.36,0,0,0-1.271,2.7,2.414,2.414,0,0,0,2.353,1.849C4199.592-853.1,4202.008-853.107,4204.423-853.107Zm.029-14.5q-3.539,0-7.076,0a2.408,2.408,0,0,0-2.6,2.386,2.408,2.408,0,0,0,2.6,2.452q7.047.012,14.1,0a2.409,2.409,0,0,0,2.6-2.451,2.4,2.4,0,0,0-2.6-2.387Q4207.961-867.608,4204.452-867.6Zm-.029-9.649v0c-2.415,0-4.829-.015-7.245.006a2.351,2.351,0,0,0-2.4,2.4,2.347,2.347,0,0,0,2.4,2.4q7.245.024,14.49-.007a2.709,2.709,0,0,0,1.184-.306,2.365,2.365,0,0,0,1.17-2.649,2.346,2.346,0,0,0-2.24-1.83C4209.328-877.269,4206.876-877.253,4204.423-877.253Z" transform="translate(-4188.68 882.101)" fill="#07884c"/>
</svg>
