<svg xmlns="http://www.w3.org/2000/svg" width="52.83" height="52.839" viewBox="0 0 52.83 52.839">
  <g id="Group_25" data-name="Group 25" transform="translate(-6820.063 591.952)">
    <path id="Path_40" data-name="Path 40" d="M6832.283-591.927c1.967,0,3.936-.007,5.9,0a6.067,6.067,0,0,1,6.258,6.246q.018,5.936,0,11.871a6.064,6.064,0,0,1-6.243,6.261q-5.935.017-11.87,0a6.069,6.069,0,0,1-6.26-6.246q-.017-5.936,0-11.871a6.074,6.074,0,0,1,6.246-6.261C6828.3-591.934,6830.293-591.927,6832.283-591.927Z" transform="translate(0 -0.019)" fill="#fff"/>
    <path id="Path_41" data-name="Path 41" d="M7012.137-579.766c0,1.968.006,3.936,0,5.9a6.072,6.072,0,0,1-6.273,6.3q-5.936.015-11.87,0a6.064,6.064,0,0,1-6.231-6.21q-.021-5.967,0-11.935a6.063,6.063,0,0,1,6.209-6.231q5.966-.02,11.933,0a6.064,6.064,0,0,1,6.231,6.209C7012.147-583.745,7012.137-581.755,7012.137-579.766Z" transform="translate(-139.248)" fill="#fff"/>
    <path id="Path_42" data-name="Path 42" d="M6844.453-411.963c0,1.947.006,3.894,0,5.84a6.072,6.072,0,0,1-6.286,6.285q-5.9.014-11.806,0a6.074,6.074,0,0,1-6.284-6.286q-.013-5.9,0-11.808a6.073,6.073,0,0,1,6.285-6.284q5.9-.012,11.806,0a6.072,6.072,0,0,1,6.284,6.285C6844.458-415.941,6844.453-413.952,6844.453-411.963Z" transform="translate(-0.005 -139.282)" fill="#fff"/>
    <path id="Path_43" data-name="Path 43" d="M7012.172-412.015a12.2,12.2,0,0,1-12.177,12.2,12.2,12.2,0,0,1-12.2-12.179,12.2,12.2,0,0,1,12.177-12.2A12.2,12.2,0,0,1,7012.172-412.015Z" transform="translate(-139.282 -139.307)" fill="#fff"/>
  </g>
</svg>
