<svg xmlns="http://www.w3.org/2000/svg" viewBox="0 0 291.95 383.25"><defs><style>.cls-1{fill:#1465c0;}.cls-2{fill:#fff;}</style></defs><title>Asset 2</title><g id="Layer_2" data-name="Layer 2"><g id="Layer_1-2" data-name="Layer 1"><path class="cls-1" d="M29.21,0H179.66V75.59c0,22.86,13.9,36.69,36.88,36.69h75.4v4.07q0,115.82,0,231.63c0,20.84-14.44,35.26-35.3,35.26q-110.56,0-221.15,0a39.46,39.46,0,0,1-6.34-.36C11.39,380,0,366.44,0,348.14Q0,233.26,0,118.38q0-42.1,0-84.2C.06,22.24,4.89,12.51,14.88,6,19.14,3.21,24.4,2,29.21,0ZM146.1,180.4q33.09,0,66.18,0c5.26,0,9.24-2.07,11.36-6.93C227,165.76,221.25,158,212.22,158q-46.74,0-93.48,0c-13.09,0-26.17,0-39.26,0-5.11,0-9,2.1-11.1,6.75-3.51,7.65,2.21,15.68,11.17,15.7Q112.82,180.46,146.1,180.4Zm-.19,22.45q-33.09,0-66.18,0c-5.26,0-9.25,2-11.4,6.87-3.44,7.69,2.33,15.59,11.34,15.6q43.76,0,87.5,0,22.62,0,45.24,0c5.1,0,9-2,11.13-6.7,3.53-7.67-2.14-15.73-11.07-15.75Q179.19,202.8,145.91,202.85Zm.05,67.37q33.09,0,66.18,0c5.07,0,9-1.83,11.28-6.47,3.7-7.63-1.82-15.95-10.69-16-21.43-.07-42.87,0-64.31,0q-34.39,0-68.8,0c-4.92,0-8.75,1.85-11,6.3-3.9,7.7,1.7,16.13,10.79,16.15C101.59,270.26,123.78,270.22,146,270.22Zm-22.38,22.46q-21.85,0-43.73,0c-7.29,0-12.37,4.55-12.46,11.06-.09,6.67,5,11.37,12.52,11.38q43.55,0,87.09,0c7.56,0,12.66-4.59,12.65-11.26s-5.11-11.18-12.71-11.19Z"/><path class="cls-1" d="M202.12,7.37C229.72,35,257,62.21,284.44,89.65c-.87,0-1.79.17-2.7.17q-33.47,0-66.92,0c-8.22,0-12.69-4.49-12.7-12.72q0-33.46,0-66.92Z"/><path class="cls-2" d="M46.86,78.44V94.17H36.57V48.51H52.69q17.25,0,17.26,14.55a13.93,13.93,0,0,1-5,11.13Q60,78.45,51.76,78.44Zm0-22V70.64h4q8.22,0,8.22-7.19t-8.22-7Z"/><path class="cls-2" d="M76.63,94.17V48.51H92.81q24.33,0,24.33,22.26,0,10.67-6.64,17T92.81,94.17ZM86.92,56.89V85.83H92q6.69,0,10.49-4t3.81-10.92q0-6.53-3.77-10.27T92,56.89Z"/><path class="cls-2" d="M151.11,56.89H135v11.2h14.81v8.35H135V94.17H124.71V48.51h26.4Z"/></g></g></svg>