<svg xmlns="http://www.w3.org/2000/svg" width="42.897" height="52.412" viewBox="0 0 42.897 52.412">
  <g id="Group_7" data-name="Group 7" transform="translate(-2500.082 -863.469)">
    <g id="Group_5" data-name="Group 5" transform="translate(2500.082 863.469)">
      <path id="Path_7" data-name="Path 7" d="M2504.329,915.882a5.805,5.805,0,0,1-2.331-.964,4.974,4.974,0,0,1-1.916-4.2q.018-10.03,0-20.059,0-11,0-22a5.14,5.14,0,0,1,.967-3.267,4.855,4.855,0,0,1,4.095-1.918q9.213.006,18.425,0c2.355,0,4.709-.008,7.063.013a1.051,1.051,0,0,1,.691.3q5.7,6.23,11.361,12.493a1.171,1.171,0,0,1,.272.719c.013,11.274,0,22.549.023,33.824a4.853,4.853,0,0,1-4.164,5.011c-.03,0-.057.035-.085.053Zm21.967-50.014c-.2-.011-.3-.021-.4-.021q-10.414,0-20.831,0a2.4,2.4,0,0,0-2.59,2.686q0,21.134,0,42.269a2.431,2.431,0,0,0,2.729,2.7q16.327,0,32.654,0a2.431,2.431,0,0,0,2.726-2.706q0-15.045,0-30.09v-.559h-11.441c-1.947,0-2.846-.9-2.847-2.844q0-5.4,0-10.8Zm2.424.014V877.73h11.83c-.2-.229-.342-.394-.489-.557-3.227-3.584-6.471-7.152-9.664-10.767A1.654,1.654,0,0,0,2528.721,865.882Z" transform="translate(-2500.082 -863.469)" fill="#fff"/>
      <g id="Group_4" data-name="Group 4" transform="translate(2.393 2.375)">
        <path id="Path_8" data-name="Path 8" d="M2723.5,882.054a1.655,1.655,0,0,1,1.678.525c3.192,3.615,6.436,7.183,9.664,10.767.146.162.288.328.489.557H2723.5Z" transform="translate(-2697.255 -882.017)" fill="#2e3192"/>
        <path id="Path_9" data-name="Path 9" d="M2556.22,896.3h-10.8c-1.947,0-2.846-.9-2.847-2.845q0-5.4,0-10.8v-.641c-.2-.011-.3-.022-.4-.022q-10.415,0-20.831,0a2.4,2.4,0,0,0-2.589,2.686q0,21.134,0,42.269a2.431,2.431,0,0,0,2.729,2.7q16.328,0,32.654,0a2.431,2.431,0,0,0,2.725-2.706q0-15.045,0-30.09V896.3Z" transform="translate(-2518.752 -881.997)" fill="#2e3192"/>
      </g>
    </g>
    <g id="Group_6" data-name="Group 6" transform="translate(2509.233 885.744)">
      <path id="Path_10" data-name="Path 10" d="M2581.64,1073.79c.145-.24.261-.424.368-.613q2.178-3.872,4.353-7.746c.213-.38.438-.734.937-.731s.72.36.933.739q3.774,6.719,7.553,13.435c.593,1.055.249,1.638-.964,1.639q-11.066,0-22.132,0c-.46,0-.884-.035-1.122-.5-.229-.454.006-.8.254-1.158q2.884-4.111,5.763-8.225c.627-.893,1.211-.9,1.831-.015C2580.148,1071.657,2580.878,1072.7,2581.64,1073.79Zm12.062,4.966-6.376-11.33a1.307,1.307,0,0,0-.152.164c-1.419,2.515-2.841,5.028-4.244,7.552a.608.608,0,0,0,.034.52,21.066,21.066,0,0,1,1.2,1.768,2.372,2.372,0,0,0,2.584,1.358C2589.026,1078.675,2591.315,1078.756,2593.7,1078.756Zm-19.634-.045h8.869l-4.436-6.33Z" transform="translate(-2571.472 -1061.181)" fill="#fff"/>
      <path id="Path_11" data-name="Path 11" d="M2617.888,1039.869a2.634,2.634,0,1,1-2.612-2.627A2.647,2.647,0,0,1,2617.888,1039.869Zm-2.641-.869a.875.875,0,1,0,.882.854A.881.881,0,0,0,2615.248,1039Z" transform="translate(-2607.345 -1037.241)" fill="#fff"/>
    </g>
  </g>
</svg>
