<svg xmlns="http://www.w3.org/2000/svg" width="50.581" height="54.737" viewBox="0 0 50.581 54.737">
  <g id="Group_19" data-name="Group 19" transform="translate(-4453.482 201)">
    <path id="Path_38" data-name="Path 38" d="M4548.144-187.316,4535.462-200a3.423,3.423,0,0,0-2.419-1h-20.48a4.47,4.47,0,0,0-4.47,4.47v45.8a4.47,4.47,0,0,0,4.47,4.47h32.113a4.47,4.47,0,0,0,4.47-4.47V-184.9A3.422,3.422,0,0,0,4548.144-187.316Zm-10.971,1.711a3.421,3.421,0,0,1-3.421-3.421v-6.842l10.263,10.263Z" transform="translate(-50.301)" fill="#f65922"/>
    <rect id="Rectangle_7" data-name="Rectangle 7" width="50.581" height="15.703" rx="3" transform="translate(4453.482 -173.866)" fill="#fff" opacity="0.65"/>
    <text id="PPT" transform="translate(4470.272 -162.063)" fill="#f65922" font-size="9" font-family="SegoeUI-Bold, Segoe UI" font-weight="700"><tspan x="0" y="0">PPT</tspan></text>
  </g>
</svg>
