<svg xmlns="http://www.w3.org/2000/svg" xmlns:xlink="http://www.w3.org/1999/xlink" width="59.367" height="59.25" viewBox="0 0 59.367 59.25">
  <defs>
    <linearGradient id="linear-gradient" x1="0.5" x2="0.519" y2="1.356" gradientUnits="objectBoundingBox">
      <stop offset="0"/>
      <stop offset="1" stop-opacity="0.941"/>
    </linearGradient>
  </defs>
  <g id="Group_35" data-name="Group 35" transform="translate(-5469 1479.25)">
    <g id="Group_34" data-name="Group 34" transform="translate(5469 -1479.25)">
      <path id="Path_52" data-name="Path 52" d="M5469-1479.25h11.853v3.468h-8.318v8.335H5469Z" transform="translate(-5469 1479.25)" fill="#fff"/>
      <path id="Path_53" data-name="Path 53" d="M5788.191-1467.446h-3.535v-8.316h-8.317v-3.488h11.852Z" transform="translate(-5728.826 1479.25)" fill="#fff"/>
      <path id="Path_54" data-name="Path 54" d="M5469-1172.35h3.537v8.318h8.406v3.486H5469Z" transform="translate(-5469 1219.796)" fill="#fff"/>
      <path id="Path_55" data-name="Path 55" d="M5775.75-1160.546v-3.464h8.406v-8.34h3.537v11.8Z" transform="translate(-5728.327 1219.796)" fill="#fff"/>
      <path id="Path_56" data-name="Path 56" d="M5555.786-1417.3h9.558v35.222h-18.692V-1397.2h-5.27v7.278H5535.8v4.4h5.5v3.451h-16.828v-3.42h7.773v-7.875h5.588v-12.728h-15.182v-18.665h18.689v6.376h4.05v3.46h-4v14.181h7.059v-5.235h3.456v5.225h9.958v-4.871h-4.3v-3.484h4.277v-4.73h-6.059Zm-17.952,7.691v-11.669h-11.687v11.669Zm12.355,12.406v11.656h11.672V-1397.2Z" transform="translate(-5514.361 1433.183)" fill="#fff"/>
      <path id="Path_57" data-name="Path 57" d="M5529.237-1269.005h10.018v3.4h-10.018Z" transform="translate(-5519.924 1301.509)" fill="#fff"/>
      <path id="Path_58" data-name="Path 58" d="M5737.134-1421.419v-3.39h9.526v3.39Z" transform="translate(-5695.681 1433.225)" fill="#fff"/>
      <path id="Path_59" data-name="Path 59" d="M5537.4-1221.454v3.4h-3.538v-3.4Z" transform="translate(-5523.837 1261.309)" fill="#fff"/>
      <path id="Path_60" data-name="Path 60" d="M5688.672-1421.4h-3.517v-3.394h3.517Z" transform="translate(-5651.737 1433.215)" fill="#fff"/>
      <path id="Path_61" data-name="Path 61" d="M5689.525-1348.17h3.491v3.412h-3.491Z" transform="translate(-5655.432 1368.435)" fill="#fff"/>
      <path id="Path_62" data-name="Path 62" d="M5575.177-1374h-3.5v-3.42h3.5Z" transform="translate(-5555.801 1393.165)" fill="#fff"/>
      <path id="Path_63" data-name="Path 63" d="M5728.632-1216.458h-3.515v-3.4h3.515Z" transform="translate(-5685.521 1259.956)" fill="#fff"/>
    </g>
    <rect id="Rectangle_9" data-name="Rectangle 9" width="54.11" height="2.474" rx="1.237" transform="translate(5472.092 -1455.712)" fill="url(#linear-gradient)"/>
    <rect id="Rectangle_10" data-name="Rectangle 10" width="54.11" height="2.474" rx="1.237" transform="translate(5472.092 -1461.278)" fill="url(#linear-gradient)"/>
    <rect id="Rectangle_11" data-name="Rectangle 11" width="54.11" height="2.474" rx="1.237" transform="translate(5472.092 -1449.528)" fill="url(#linear-gradient)"/>
  </g>
</svg>
