<svg xmlns="http://www.w3.org/2000/svg" width="52.402" height="52.412" viewBox="0 0 52.402 52.412">
  <g id="Group_8" data-name="Group 8" transform="translate(-3005 -501)">
    <path id="Path_12" data-name="Path 12" d="M3005,549.317V505.095a1.606,1.606,0,0,0,.081-.239,4.563,4.563,0,0,1,1.622-2.8,5.5,5.5,0,0,1,2.392-1.053h25.9a6.2,6.2,0,0,1,3.39,1.947c1.585,1.551,3.2,3.074,4.823,4.583a5.212,5.212,0,0,1,1.725,4.047c-.022,4.64-.008,9.28-.008,13.921v.632c.2-.235.305-.35.4-.466,1.456-1.694,2.833-3.465,4.391-5.06a4.213,4.213,0,0,1,4.916-.865,4.583,4.583,0,0,1,2.766,4.084,4.835,4.835,0,0,1-1.232,3.27q-5.48,6.49-10.949,12.989a1.308,1.308,0,0,0-.284.767c-.021,2.559.024,5.119-.034,7.676a5.816,5.816,0,0,1-.484,2.266,4.45,4.45,0,0,1-4.379,2.618q-9.391.005-18.782,0-5.706,0-11.413,0a4.421,4.421,0,0,1-3.917-1.912A12.17,12.17,0,0,1,3005,549.317Zm36.844-5.289c-.452.254-.821.5-1.222.681-1.807.8-3.625,1.572-5.435,2.363a1.549,1.549,0,0,1-1.726-.181,1.58,1.58,0,0,1-.468-1.722c.442-1.856.89-3.71,1.326-5.567a5.4,5.4,0,0,1,1.169-2.3q3.047-3.588,6.068-7.2a1.3,1.3,0,0,0,.284-.765q.025-7.779.012-15.557v-.5c-2.521,0-4.96,0-7.4,0a1.588,1.588,0,0,1-1.812-1.82q0-3.4,0-6.806v-.586h-22.615c-1.414,0-1.953.535-1.953,1.938q0,21.187,0,42.373c0,1.435.531,1.959,1.983,1.959h29.835c.17,0,.342.006.511-.007a1.487,1.487,0,0,0,1.433-1.41C3041.868,547.308,3041.844,545.691,3041.844,544.029Zm.69-5.544,8.479-10.047-2.347-1.964-8.482,10.037Zm-6.805-28.311h5.761l-5.761-5.5Zm14.92,13.944,2.351,1.977c.372-.454.754-.865,1.071-1.321a1.512,1.512,0,0,0-2.328-1.91C3051.366,523.247,3051.032,523.675,3050.649,524.117Zm-10.129,16.69-2.3-1.935c-1.254,1.134-1.048,2.755-1.59,4.182C3038.953,542.31,3039.835,541.8,3040.52,540.807Z" fill="#fff"/>
    <path id="Path_13" data-name="Path 13" d="M3062.726,564.91c0,1.662.024,3.279-.01,4.895a1.487,1.487,0,0,1-1.433,1.41c-.17.013-.341.007-.512.007h-29.835c-1.453,0-1.983-.524-1.983-1.959V526.891c0-1.4.539-1.938,1.953-1.938h22.615v.586q0,3.4,0,6.806a1.588,1.588,0,0,0,1.813,1.82c2.439,0,4.878,0,7.4,0v.5q0,7.779-.012,15.557a1.3,1.3,0,0,1-.285.765q-3.016,3.614-6.068,7.2a5.4,5.4,0,0,0-1.169,2.3c-.436,1.857-.883,3.711-1.326,5.567a1.582,1.582,0,0,0,.469,1.722,1.55,1.55,0,0,0,1.726.181c1.81-.791,3.627-1.565,5.434-2.363C3061.905,565.414,3062.274,565.165,3062.726,564.91Zm-16.882-21.429h11.873c1.228,0,1.942-.565,1.942-1.535s-.714-1.535-1.942-1.535H3033.97a4.694,4.694,0,0,0-.511.009,1.489,1.489,0,0,0-1.337,1.027,1.532,1.532,0,0,0,1.593,2.032Q3039.779,543.488,3045.844,543.481Zm-.052,9.213h11.925c1.229,0,1.942-.564,1.943-1.535s-.715-1.536-1.942-1.536h-23.747a4.7,4.7,0,0,0-.512.009,1.489,1.489,0,0,0-1.338,1.027,1.532,1.532,0,0,0,1.592,2.033Q3039.754,552.7,3045.792,552.694Zm-4.567-18.529q3.762,0,7.523,0a1.569,1.569,0,0,0,1.589-.973,1.539,1.539,0,0,0-1.564-2.094q-5.067-.011-10.134,0-2.482,0-4.964,0a1.536,1.536,0,1,0-.024,3.067C3036.175,534.174,3038.7,534.166,3041.225,534.166Zm-.039,27.741q3.787,0,7.574,0a1.566,1.566,0,0,0,1.581-.984,1.54,1.54,0,0,0-1.58-2.082q-5.784-.009-11.566,0c-1.194,0-2.388-.007-3.583,0a1.534,1.534,0,1,0,.051,3.063C3036.17,561.915,3038.678,561.907,3041.186,561.907Z" transform="translate(-20.882 -20.882)" fill="#662d91"/>
    <path id="Path_14" data-name="Path 14" d="M3281.777,711.7l-2.351-1.973,8.482-10.037,2.347,1.964Z" transform="translate(-239.242 -173.215)" fill="#662d91"/>
    <path id="Path_15" data-name="Path 15" d="M3244.679,535.155v-5.5l5.761,5.5Z" transform="translate(-208.95 -24.981)" fill="#662d91"/>
    <path id="Path_16" data-name="Path 16" d="M3361.053,669.646c.383-.442.717-.87,1.094-1.255a1.512,1.512,0,0,1,2.328,1.91c-.317.456-.7.867-1.071,1.321Z" transform="translate(-310.405 -145.528)" fill="#662d91"/>
    <path id="Path_17" data-name="Path 17" d="M3255.571,798.329c-.685.993-1.567,1.5-3.893,2.247.542-1.427.336-3.048,1.59-4.182Z" transform="translate(-215.051 -257.522)" fill="#662d91"/>
    <path id="Path_18" data-name="Path 18" d="M3066.736,648.573q-6.064,0-12.129,0a1.532,1.532,0,0,1-1.593-2.032,1.489,1.489,0,0,1,1.338-1.027,4.7,4.7,0,0,1,.511-.009h23.747c1.228,0,1.942.565,1.942,1.535s-.714,1.535-1.942,1.535Z" transform="translate(-41.774 -125.974)" fill="#fff"/>
    <path id="Path_19" data-name="Path 19" d="M3066.683,720.433q-6.039,0-12.078,0a1.532,1.532,0,0,1-1.592-2.033,1.488,1.488,0,0,1,1.338-1.026,4.68,4.68,0,0,1,.511-.009h23.747c1.227,0,1.942.567,1.941,1.536s-.714,1.535-1.943,1.535Z" transform="translate(-41.773 -188.621)" fill="#fff"/>
    <path id="Path_20" data-name="Path 20" d="M3062.077,575.921c-2.525,0-5.05.009-7.574,0a1.536,1.536,0,1,1,.025-3.067q2.482,0,4.964,0,5.067,0,10.133,0a1.539,1.539,0,0,1,1.565,2.094,1.569,1.569,0,0,1-1.589.973Q3065.839,575.925,3062.077,575.921Z" transform="translate(-41.734 -62.637)" fill="#fff"/>
    <path id="Path_21" data-name="Path 21" d="M3062.074,792.293c-2.508,0-5.015.008-7.523,0a1.534,1.534,0,1,1-.051-3.063c1.194-.011,2.388,0,3.583,0q5.783,0,11.566,0a1.54,1.54,0,0,1,1.58,2.082,1.565,1.565,0,0,1-1.581.984Q3065.861,792.3,3062.074,792.293Z" transform="translate(-41.771 -251.268)" fill="#fff"/>
  </g>
</svg>
