<svg xmlns="http://www.w3.org/2000/svg" width="44.844" height="57.082" viewBox="0 0 44.844 57.082">
  <g id="Group_38" data-name="Group 38" transform="translate(-3537.057 456.445)">
    <path id="Path_70" data-name="Path 70" d="M3565.594-456.444c0,3.472-.018,6.847.006,10.221a6.045,6.045,0,0,0,4.637,5.889,7.977,7.977,0,0,0,1.827.19c3.205.019,6.411.011,9.617.014a1.814,1.814,0,0,1,.219.041v.65q0,16.816,0,33.633a6.118,6.118,0,0,1-6.433,6.441q-15.986,0-31.972,0a6.121,6.121,0,0,1-6.436-6.439q0-22.1,0-44.207a6.121,6.121,0,0,1,6.441-6.433q10.7,0,21.4,0Zm-12.248,36.694c2.015,0,4.03.009,6.044,0a2.022,2.022,0,0,0,2.122-2.122c.012-1.4.027-2.8-.008-4.2a5.923,5.923,0,0,0-5.051-5.766,38.112,38.112,0,0,0-5.332-.123,5.916,5.916,0,0,0-5.774,5.04,40.612,40.612,0,0,0-.133,4.887,2.059,2.059,0,0,0,2.278,2.287Q3550.42-419.745,3553.347-419.75Zm6.129-20.374a6.119,6.119,0,0,0-6.1-6.126,6.126,6.126,0,0,0-6.125,6.1,6.123,6.123,0,0,0,6.1,6.125A6.119,6.119,0,0,0,3559.476-440.124Zm-.062,30.568h3.821c2.823,0,5.647.01,8.47-.006a2.032,2.032,0,0,0,2.031-1.825,2.048,2.048,0,0,0-1.62-2.2,4.165,4.165,0,0,0-.824-.044q-11.591,0-23.182,0c-.319,0-.638-.016-.955.006a1.965,1.965,0,0,0-1.8,1.3,2.032,2.032,0,0,0,2.023,2.767C3551.389-409.551,3555.4-409.557,3559.414-409.557Zm10.265-20.386c.657,0,1.316.01,1.973,0a2.047,2.047,0,0,0,2.092-2.029,2.038,2.038,0,0,0-2.079-2.041q-2.005-.023-4.011,0a2.027,2.027,0,0,0-2.059,2.057,2.042,2.042,0,0,0,2.045,2.012C3568.32-429.93,3569-429.944,3569.679-429.943Zm-.007,10.193c.658,0,1.316.009,1.974,0a2.047,2.047,0,0,0,2.1-2.022,2.037,2.037,0,0,0-2.071-2.048q-2.005-.024-4.011,0a2.027,2.027,0,0,0-2.066,2.05,2.042,2.042,0,0,0,2.038,2.019C3568.313-419.737,3568.992-419.751,3569.671-419.75Z" transform="translate(0 0)" fill="#c1272d"/>
    <path id="Path_71" data-name="Path 71" d="M3728.855-448.846l10.9,10.889c-.324.024-.5.048-.677.048q-4.043,0-8.086,0a2.068,2.068,0,0,1-2.283-2.287q-.005-4.043,0-8.087v-.493Z" transform="translate(-159.04 -6.306)" fill="#c1272d"/>
    <path id="Path_72" data-name="Path 72" d="M3593.095-300.527q-2.927,0-5.854,0a2.059,2.059,0,0,1-2.278-2.287,40.764,40.764,0,0,1,.133-4.887,5.916,5.916,0,0,1,5.774-5.04,38.12,38.12,0,0,1,5.332.123,5.924,5.924,0,0,1,5.051,5.766c.035,1.4.02,2.8.008,4.2a2.021,2.021,0,0,1-2.122,2.122C3597.125-300.518,3595.11-300.527,3593.095-300.527Z" transform="translate(-39.749 -119.223)" fill="#fff"/>
    <path id="Path_73" data-name="Path 73" d="M3609.185-390.408a6.119,6.119,0,0,1-6.125,6.1,6.124,6.124,0,0,1-6.1-6.125,6.127,6.127,0,0,1,6.125-6.1A6.119,6.119,0,0,1,3609.185-390.408Z" transform="translate(-49.709 -49.716)" fill="#fff"/>
    <path id="Path_74" data-name="Path 74" d="M3599.144-200.81c-4.012,0-8.025.006-12.037,0a2.032,2.032,0,0,1-2.023-2.767,1.964,1.964,0,0,1,1.8-1.3c.317-.023.637-.006.955-.006q11.591,0,23.181,0a4.166,4.166,0,0,1,.824.044,2.049,2.049,0,0,1,1.62,2.2,2.032,2.032,0,0,1-2.031,1.825c-2.823.016-5.647.006-8.47.006Z" transform="translate(-39.731 -208.747)" fill="#fff"/>
    <path id="Path_75" data-name="Path 75" d="M3708.853-320.624c-.679,0-1.359.013-2.038,0a2.043,2.043,0,0,1-2.045-2.012,2.027,2.027,0,0,1,2.059-2.057q2.005-.027,4.011,0a2.038,2.038,0,0,1,2.078,2.041,2.047,2.047,0,0,1-2.092,2.029C3710.168-320.613,3709.51-320.623,3708.853-320.624Z" transform="translate(-139.174 -109.32)" fill="#fff"/>
    <path id="Path_76" data-name="Path 76" d="M3708.845-260.724c-.679,0-1.359.014-2.037,0a2.042,2.042,0,0,1-2.038-2.018,2.027,2.027,0,0,1,2.066-2.05q2.005-.026,4.011,0a2.037,2.037,0,0,1,2.071,2.048,2.047,2.047,0,0,1-2.1,2.022C3710.161-260.714,3709.5-260.723,3708.845-260.724Z" transform="translate(-139.175 -159.027)" fill="#fff"/>
  </g>
</svg>
