<svg xmlns="http://www.w3.org/2000/svg" width="44.163" height="58.885" viewBox="0 0 44.163 58.885">
  <g id="Group_43" data-name="Group 43" transform="translate(-78 -670.981)">
    <g id="Group_42" data-name="Group 42" transform="translate(-7754.415 -400.019)">
      <path id="Path_77" data-name="Path 77" d="M7875.5,1085.721l-13.643-13.643a3.681,3.681,0,0,0-2.6-1.078h-22.032a4.808,4.808,0,0,0-4.808,4.808v49.268a4.808,4.808,0,0,0,4.808,4.808h34.547a4.808,4.808,0,0,0,4.808-4.808v-36.753A3.681,3.681,0,0,0,7875.5,1085.721Zm-11.8,1.84a3.68,3.68,0,0,1-3.681-3.68v-7.361l11.041,11.041Z" fill="#1465c0"/>
      <g id="Group_41" data-name="Group 41" transform="translate(7840.614 1093.663)">
        <path id="Path_78" data-name="Path 78" d="M8075.6,1289l.365.117a2.221,2.221,0,0,1,1.507,2.362c-.005.049-.007.1-.012.175l1.257.334c.526.139.636.32.5.834q-.98,3.753-1.961,7.5-.176.67-.622.563c-.33-.079-.427-.345-.3-.824l1.85-7.073c.01-.037.018-.075.034-.145l-1-.274c-.174.662-.346,1.311-.516,1.96q-2.047,7.835-4.093,15.67c-.173.661-.348,1.321-.52,1.982-.16.617-.246.68-.884.606a10.048,10.048,0,0,1,.189.988.816.816,0,0,1-.11.523c-.795,1.089-1.612,2.163-2.42,3.243a.487.487,0,0,1-.545.21.463.463,0,0,1-.348-.433q-.261-1.975-.53-3.95a.728.728,0,0,1,.2-.651c.211-.221.4-.461.607-.7a2.19,2.19,0,0,1-.4-.211.5.5,0,0,1-.116-.572c.584-2.222,1.16-4.447,1.741-6.67q1.8-6.885,3.6-13.77a2.242,2.242,0,0,1,1.742-1.753c.025-.006.046-.032.069-.049Zm-3.865,20.758,2.925-11.191-2.46-.643c-.979,3.746-1.95,7.459-2.925,11.192Zm.709-12.778,2.435.634a.458.458,0,0,0,.051-.084c.52-1.983,1.044-3.965,1.556-5.95a1.259,1.259,0,0,0-.895-1.578,1.243,1.243,0,0,0-1.556.925C8073.5,1292.928,8072.982,1294.932,8072.444,1296.98Zm-3.676,19.1c.569-.759,1.092-1.452,1.608-2.152a.313.313,0,0,0,.036-.223c-.065-.35-.135-.7-.222-1.045a.321.321,0,0,0-.173-.2c-.68-.242-.681-.238-1.152.311-.123.143-.256.278-.365.43a.414.414,0,0,0-.081.263C8068.525,1314.313,8068.643,1315.156,8068.769,1316.081Zm.26-6.021c-.1.366-.186.706-.279,1.063l2.459.643.273-1.065Z" transform="translate(-8051.197 -1289)" fill="#fff"/>
        <path id="Path_79" data-name="Path 79" d="M7913.788,1531.933a3.074,3.074,0,0,1-.641-1.6,2.514,2.514,0,0,1,.976-2.389,1.477,1.477,0,0,1,1.62-.208,1.523,1.523,0,0,1,.825,1.416,3.584,3.584,0,0,1-.856,2.381c-.084.109-.176.212-.293.353a1.992,1.992,0,0,0,2.16-.685,4.641,4.641,0,0,1,.685-.737,1.257,1.257,0,0,1,2.088.571c.1.251.212.5.333.786.144-.1.235-.153.317-.22a1.279,1.279,0,0,1,1.5-.141,2.879,2.879,0,0,0,1.331.374,2.826,2.826,0,0,0,2.332-1.1c.225-.287.481-.347.716-.178s.255.463.04.759a3.8,3.8,0,0,1-4.378,1.211c-.155-.064-.31-.133-.458-.211a.416.416,0,0,0-.518.054c-.844.729-1.621.263-1.945-.565-.062-.157-.112-.318-.181-.471-.131-.292-.277-.353-.529-.156a3.755,3.755,0,0,0-.589.622,2.861,2.861,0,0,1-1.733,1.068,3.09,3.09,0,0,1-1.835-.19.524.524,0,0,0-.4.016,4.469,4.469,0,0,1-2.341.564,1.921,1.921,0,0,1-.324-.038.476.476,0,0,1-.4-.507.494.494,0,0,1,.519-.428c.414-.02.829-.037,1.237-.1A4.511,4.511,0,0,0,7913.788,1531.933Zm.792-.584a3.178,3.178,0,0,0,1.025-1.783c.09-.488-.059-.905-.327-1-.293-.1-.733.153-.964.551A1.97,1.97,0,0,0,7914.58,1531.349Z" transform="translate(-7911.283 -1502.777)" fill="#fff"/>
        <path id="Path_80" data-name="Path 80" d="M8082.25,1524.7a.415.415,0,0,1-.414-.44.428.428,0,0,1,.419-.411.422.422,0,0,1,.428.43A.411.411,0,0,1,8082.25,1524.7Z" transform="translate(-8064.105 -1499.433)" fill="#fff"/>
      </g>
    </g>
    <rect id="Rectangle_12" data-name="Rectangle 12" width="20" height="1" rx="0.5" transform="translate(83 694)" fill="#fff"/>
    <rect id="Rectangle_15" data-name="Rectangle 15" width="20" height="1" rx="0.5" transform="translate(83 703)" fill="#fff"/>
    <rect id="Rectangle_14" data-name="Rectangle 14" width="20" height="1" rx="0.5" transform="translate(83 700)" fill="#fff"/>
    <rect id="Rectangle_13" data-name="Rectangle 13" width="16" height="1" rx="0.5" transform="translate(83 697)" fill="#fff"/>
  </g>
</svg>
