<?xml version="1.0" ?><svg width="512px" height="512px" viewBox="0 0 512 512" id="_x30_1" style="enable-background:new 0 0 512 512;" version="1.1" xml:space="preserve" xmlns="http://www.w3.org/2000/svg" xmlns:xlink="http://www.w3.org/1999/xlink"><path d="M466,297.528V240c0-37.795-9.991-73.254-27.466-103.891c9.233-21.834,4.966-48.02-12.828-65.814  C380.375,24.964,320.106,0,256,0S131.625,24.964,86.294,70.294c-17.794,17.794-22.061,43.98-12.828,65.814  C55.991,166.746,46,202.205,46,240v57.528C17.994,319.496,0,353.646,0,392v0c0,66.274,53.726,120,120,120h0  c33.137,0,60-26.863,60-60V332c0-33.137-26.863-60-60-60h0c-4.737,0-9.406,0.284-14,0.817V240c0-24.344,5.805-47.33,16.097-67.658  c17.481,1.931,35.646-3.791,49.05-17.195c46.788-46.788,122.918-46.788,169.706,0c11.716,11.716,27.071,17.574,42.426,17.574  c2.212,0,4.422-0.136,6.624-0.379C400.195,192.67,406,215.656,406,240v32.818c-4.593-0.534-9.263-0.817-14-0.817h0  c-33.137,0-60,26.863-60,60v120c0,33.137,26.863,60,60,60h0c66.274,0,120-53.726,120-120v0C512,353.646,494.006,319.496,466,297.528  z"/></svg>